<svg xmlns="http://www.w3.org/2000/svg" xmlns:xlink="http://www.w3.org/1999/xlink" xml:space="preserve" style="enable-background:new 0 0 600 400" viewBox="0 0 600 400"><defs><path id="a" d="M0 0h600v400H0z" transform="rotate(-180 300 200)"/></defs><clipPath id="b"><use xlink:href="#a" style="overflow:visible"/></clipPath><path d="M0 0h600v400H0z" style="clip-path:url(#b);fill:#fff" transform="rotate(-180 300 200)"/><g style="clip-path:url(#b)"><path d="m452.049 204.671-2.531.077-.064-2.088-.098.003-.748 2.112-3.611.11c-.664.02-1.231-.047-1.703-.2-.472-.154-.856-.381-1.153-.679a2.768 2.768 0 0 1-.66-1.1 5.11 5.11 0 0 1-.241-1.462l-.056-1.842a5.089 5.089 0 0 1 .152-1.474c.118-.442.314-.821.592-1.137s.647-.565 1.109-.747c.461-.182 1.023-.283 1.688-.303l6.708-.204c.229-.007.348.113.355.358l.261 8.576zm-2.729-6.446a.18.18 0 0 0-.053-.127.171.171 0 0 0-.137-.051l-4.104.125c-.483.015-.825.126-1.023.332-.199.207-.289.589-.272 1.146l.045 1.499c.016.54.129.914.341 1.121.21.207.559.303 1.042.288l4.287-.131-.126-4.202zM437.014 201.525l-3.502.106-.056-1.819 4.177-.126-.034-1.118a.23.23 0 0 0-.034-.116c-.022-.036-.065-.053-.131-.051l-5.073.154c-.082.002-.122.049-.119.139l.036 1.191-.099.003-2.373-.801-.071-2.322c-.007-.245.112-.372.358-.379l9.607-.292c.238-.007.36.112.368.358l.249 8.207c.008.245-.107.371-.345.379l-9.89.3-.07-2.321 7.543-.23c.115-.003.17-.063.167-.177l-.081-2.678-.086.003-.541 1.59zM418.417 198.979l-.056-1.843c-.008-.262.115-.396.369-.404l7.948-.241c.803-.024 1.381.136 1.737.482.355.346.541.842.561 1.489l.019.626c.01.328-.018.611-.084.851a1.42 1.42 0 0 1-.337.613 1.756 1.756 0 0 1-.621.412 4.304 4.304 0 0 1-.921.25l-5.336.838c-.155.021-.258.064-.31.127-.051.063-.074.172-.069.328l.007.245c.006.197.044.333.116.408.072.076.215.11.428.105l7.137-.217.07 2.321-7.961.242c-.491.015-.906-.022-1.245-.11a1.955 1.955 0 0 1-.824-.411 1.657 1.657 0 0 1-.464-.699 3.198 3.198 0 0 1-.165-.973l-.021-.712a3.375 3.375 0 0 1 .072-.875c.058-.248.162-.458.313-.631.15-.173.348-.314.59-.424.243-.109.54-.195.891-.255l5.529-.942c.164-.03.273-.07.329-.121.056-.051.081-.162.076-.335l-.007-.221c-.004-.139-.04-.244-.108-.316-.067-.072-.188-.105-.36-.1l-4.72.143c-.099.003-.145.054-.143.152l.03.983-.099.003-2.371-.788zM414.898 205.799l-.271-8.943 2.531-.077.271 8.943-2.531.077zM405.549 203.611c.003.099.049.146.139.144l4.238-.129c.483-.015.824-.131 1.023-.351.198-.22.289-.6.272-1.14l-.047-1.573a2.714 2.714 0 0 0-.096-.68.989.989 0 0 0-.246-.435.876.876 0 0 0-.42-.221 2.495 2.495 0 0 0-.622-.049l-4.274.13c-.074.002-.109.044-.106.126l.026.86-.099.003-2.373-.789-.059-1.929c-.008-.245.108-.372.346-.379l6.694-.203c.664-.02 1.231.047 1.703.201.472.153.855.379 1.152.678.296.299.517.665.66 1.099.145.434.225.922.241 1.462l.056 1.843a5.125 5.125 0 0 1-.151 1.474 2.763 2.763 0 0 1-.593 1.137c-.278.316-.647.566-1.108.747-.462.182-1.024.283-1.688.304l-6.732.204c-.204.006-.311-.105-.317-.335l-.133-4.386 2.506-.076.003.11a5.234 5.234 0 0 0-.031.376 4.435 4.435 0 0 0-.007.412l.043 1.365zM401.445 197.256c.23-.007.347.112.355.357l.261 8.575-2.298.07-.204-6.72c-.004-.131-.071-.195-.202-.191l-.123.004a.247.247 0 0 0-.229.154l-3.318 6.52a.673.673 0 0 1-.232.29c-.084.052-.212.08-.383.085l-3.638.11c-.229.008-.348-.107-.354-.345l-.261-8.588 2.297-.07.204 6.732c.004.132.072.195.203.191l.135-.005c.099-.003.175-.055.228-.154l3.196-6.528a.814.814 0 0 1 .206-.276c.077-.06.209-.092.397-.098l3.76-.113z" style="fill:#f1f1f4"/></g><circle cx="330.95" cy="195.53" r="155.018" style="clip-path:url(#b);fill:#dbdfff" transform="rotate(-45.001 330.95 195.535)"/><circle cx="208.652" cy="285.055" r="70.521" style="clip-path:url(#b);fill-rule:evenodd;clip-rule:evenodd;fill:#dbdfff"/><g style="clip-path:url(#b)"><linearGradient id="c" x1="139.837" x2="139.837" y1="275.201" y2="204.012" gradientTransform="scale(-1 1) rotate(-25.043 -216.53 1546.647)" gradientUnits="userSpaceOnUse"><stop offset="0" style="stop-color:#dbccff"/><stop offset="1" style="stop-color:#d1bbff"/></linearGradient><path d="M443.727 188.125c-.24 1.52.429 4.153 3.595 7.495l-13.305 32.248a8.443 8.443 0 0 0-6.237 4.751 8.47 8.47 0 0 0 4.091 11.264 8.469 8.469 0 0 0 11.264-4.09 8.441 8.441 0 0 0-.359-7.833l16.204-30.912c4.695.29 7.124-.964 8.056-2.051.173-.202 1.176-2.516 1.176-2.516 2.586-7.134.333-14.038.333-14.038l-2.351-1.098-3.97 10.223c-3.285 1.827-6.465 1.186-6.465 1.186l-.007.016s-2.533-2.028-3.239-5.72l5.294-9.604-2.351-1.098s-6.741 2.702-10.553 9.264c0-.003-1.125 2.192-1.176 2.513zM431.165 234.2l3.882-2.713 4.293 2.006.41 4.719-3.882 2.713-4.293-2.005-.41-4.72z" style="fill:url(#c)"/><linearGradient id="d" x1="139.833" x2="139.833" y1="277.978" y2="206.789" gradientTransform="scale(-1 1) rotate(-25.043 -216.53 1546.647)" gradientUnits="userSpaceOnUse"><stop offset="0" style="stop-color:#b5a6e7"/><stop offset="1" style="stop-color:#7760bf"/></linearGradient><path d="m446.147 198.136-13.305 32.248a8.443 8.443 0 0 0-6.237 4.751 8.469 8.469 0 0 0 4.09 11.264 8.47 8.47 0 0 0 11.264-4.09 8.441 8.441 0 0 0-.359-7.833l16.204-30.912c5.567.344 9.231-4.567 9.231-4.567 2.586-7.134.333-14.039.333-14.039l-2.351-1.098-3.97 10.223c-3.284 1.827-6.465 1.186-6.465 1.186l-.007.016s-2.533-2.028-3.239-5.72l5.293-9.604-2.351-1.098s-6.741 2.703-10.553 9.264c.002-.002-1.414 5.96 2.422 10.009zm-16.157 38.58 3.882-2.713 4.293 2.006.41 4.719-3.882 2.713-4.292-2.006-.411-4.719z" style="fill:url(#d)"/><path d="M465.394 181.853h2.777v2.594h-2.777z" style="fill:#e5e2ff" transform="rotate(-64.957 466.784 183.146)"/><path d="M454.655 176.855h2.777v2.594h-2.777z" style="fill:#e5e2ff" transform="rotate(-64.957 456.037 178.15)"/><path d="M431.745 238.811h2.777v4.738h-2.777z" style="fill:#e5e2ff" transform="rotate(-64.957 433.134 241.175)"/><linearGradient id="e" x1="139.833" x2="139.833" y1="260.28" y2="230.272" gradientTransform="scale(-1 1) rotate(-25.043 -216.53 1546.647)" gradientUnits="userSpaceOnUse"><stop offset="0" style="stop-color:#b5a6e7"/><stop offset="1" style="stop-color:#7760bf"/></linearGradient><path d="m446.62 202.255-10.654 26.288s1.845 2.626 5.283 2.468l13.087-25.151s-2.933-3.782-7.716-3.605zm.573.483c1.099.145 2.181.46 3.24.955a13.54 13.54 0 0 1 3.15 2.068l-13.107 24.634a6.341 6.341 0 0 1-1.806-.539 7.443 7.443 0 0 1-1.694-1.109l10.217-26.009z" style="fill:url(#e)"/><path d="m436.976 228.748-1.01-.205s1.499 2.665 5.283 2.468l-.773-.615s-1.863-.217-3.5-1.648z" style="fill:#e5e2ff"/><linearGradient id="f" x1="135.574" x2="144.091" y1="230.873" y2="230.873" gradientTransform="scale(-1 1) rotate(-25.043 -216.53 1546.647)" gradientUnits="userSpaceOnUse"><stop offset="0" style="stop-color:#8b8be0"/><stop offset="1" style="stop-color:#a177b7"/></linearGradient><path d="m454.336 205.86-.753-.098s-2.236-2.321-6.39-3.024l-.573-.484s1.669-.292 4.269.923c2.6 1.216 3.447 2.683 3.447 2.683z" style="opacity:.62;fill:url(#f)"/><linearGradient id="g" x1="139.833" x2="139.833" y1="232.85" y2="227.694" gradientTransform="scale(-1 1) rotate(-25.043 -216.53 1546.647)" gradientUnits="userSpaceOnUse"><stop offset="0" style="stop-color:#fff"/><stop offset="1" style="stop-color:#a177b7"/></linearGradient><path d="M457.805 203.564s-6.294-1.119-11.658-5.428l-1.702 4.124s1.93-1.91 6.165-.184c4.954 2.019 4.683 6.004 4.683 6.004l2.512-4.516z" style="opacity:.62;fill:url(#g)"/><linearGradient id="h" x1="144.337" x2="144.337" y1="263.343" y2="230.262" gradientTransform="scale(-1 1) rotate(-25.043 -216.53 1546.647)" gradientUnits="userSpaceOnUse"><stop offset="0" style="stop-color:#000"/><stop offset="1" style="stop-color:#fff"/></linearGradient><path d="M444.445 202.26c1.207-.867 2.59-.894 2.59-.894l-12.666 30.595-1.527-1.577 11.603-28.124z" style="opacity:.5;fill:url(#h)"/><path d="M444.445 202.26s1.329 4.088-2.487 6.027l2.487-6.027z" style="fill:#fff"/></g><g style="clip-path:url(#b)"><linearGradient id="i" x1="280.3" x2="280.3" y1="400" y2="310.79" gradientTransform="matrix(-1 0 0 1 600 0)" gradientUnits="userSpaceOnUse"><stop offset=".011" style="stop-color:#4b1567"/><stop offset="1" style="stop-color:#4f3885"/></linearGradient><path d="M253.768 400h47.002c4.92-27.32 16.36-62.87 16.36-62.87 2.78-1.65 8.21.38 8.21.38L342.52 400h42.94c2.28-38.56-18.82-82.33-18.82-82.33l.01-.01c.07-.15.74-1.49.56-2.39-.07-.39-.79-1.13-1.6-1.86-1.16-1.06-2.54-2.12-2.54-2.12l-80.11-.5s-.81.41-1.84 1.03h-.01c-1.75 1.06-4.12 2.7-4.12 3.9 0 1.65.65 2.72.81 2.96l.04.05C260.663 351.147 253.768 400 253.768 400z" style="fill:url(#i)"/><radialGradient id="j" cx="232.499" cy="368.65" r="27.028" gradientTransform="matrix(-.6462 .1491 .3852 1.6696 371.377 -282.248)" gradientUnits="userSpaceOnUse"><stop offset="0" style="stop-color:#4b474b"/><stop offset="1" style="stop-color:#000"/></radialGradient><path d="M345.675 371.946c5.75 24.922 18.231 43.321 27.877 41.095 9.646-2.225 12.804-24.233 7.054-49.155s-18.231-43.321-27.877-41.095-12.804 24.233-7.054 49.155z" style="opacity:.5;fill:url(#j)"/><radialGradient id="k" cx="351.329" cy="352.809" r="27.027" gradientTransform="matrix(-.6386 -.179 -.4623 1.6499 667.403 -151.745)" gradientUnits="userSpaceOnUse"><stop offset="0" style="stop-color:#4b474b"/><stop offset="1" style="stop-color:#000"/></radialGradient><path d="M262.68 362.63c-6.901 24.628-4.769 46.758 4.764 49.429 9.532 2.671 22.854-15.128 29.755-39.756s4.769-46.758-4.764-49.429c-9.531-2.671-22.853 15.129-29.755 39.756z" style="opacity:.5;fill:url(#k)"/><path d="m348.08 400.042.493-.084c-5.465-32.199-19.338-59.204-19.477-59.474l-.058-.073-3.534-3.09-.329.377 3.498 3.058c.623 1.219 14.055 27.757 19.407 59.286zM294.39 400.042c5.357-31.552 19.159-58.347 19.779-59.538l3.128-2.808-.334-.373-3.216 2.908c-.143.271-14.384 27.526-19.85 59.727l.493.084z" style="fill:#6130a1"/><linearGradient id="l" x1="277.16" x2="277.16" y1="400" y2="310.79" gradientTransform="matrix(-1 0 0 1 600 0)" gradientUnits="userSpaceOnUse"><stop offset="0" style="stop-color:#ccf"/><stop offset="1" style="stop-color:#755cbb"/></linearGradient><path d="M276.99 315.72c0 1.65.65 2.72.81 2.96l.04.05c16.68 3.77 29.37 19.34 29.37 19.34-9.09 17.44-24.25 61.93-24.25 61.93h17.81c4.92-27.32 16.36-62.87 16.36-62.87 2.78-1.65 8.21.38 8.21.38L342.52 400h11.12c-3.98-26.18-15.73-58.14-15.73-58.14 11.55-13.45 28.73-24.19 28.73-24.19l.01-.01 2.04-1.28-1.48-1.11c-7.43 7.13-31.39 16.44-32.13 16.73l30.53-18.59c-1.16-1.06-2.54-2.12-2.54-2.12l-80.11-.5s-.81.41-1.84 1.03L303 323.86l-26.01-8.14z" style="opacity:.76;fill:url(#l)"/><linearGradient id="m" x1="287.546" x2="287.546" y1="355.395" y2="331.063" gradientTransform="matrix(-1 0 0 1 600 0)" gradientUnits="userSpaceOnUse"><stop offset="0" style="stop-color:#ccf"/><stop offset="1" style="stop-color:#755cbb"/></linearGradient><path d="m317.13 337.13-9.351-6.067L310 337.13l1.628 18.265z" style="opacity:.76;fill:url(#m)"/><linearGradient id="n" x1="259.363" x2="259.363" y1="346.448" y2="322.609" gradientTransform="matrix(-1 0 0 1 600 0)" gradientUnits="userSpaceOnUse"><stop offset="0" style="stop-color:#ccf"/><stop offset="1" style="stop-color:#755cbb"/></linearGradient><path d="m325.34 337.51 9.74-5.51 20.854-9.391-26.555 17.549-1.582 6.29z" style="opacity:.76;fill:url(#n)"/><path d="M298.54 149.65c-.06.43-.11.66-.11.66.49 2.04 1.05 3.93 1.66 5.66 1.96 5.63 4.4 9.63 6.23 12.12 1.59 2.15 2.72 3.18 2.72 3.18 14.59-4.58 21.78-18.85 24.54-25.95.02-.03.03-.07.04-.11.53-1.34.88-2.42 1.1-3.12v-.01c.17-.56.25-.87.25-.87-.06-.12-.12-.25-.18-.37l-.03-.05c-.24-.5-.48-1.01-.7-1.5a71.163 71.163 0 0 1-4-11.17 60.36 60.36 0 0 1-1.27-5.71c-.09-.55-.13-.85-.13-.85l-6.8 3.59-23.43 12.4c.35 2.15.49 4.17.5 5.94.02 1.25-.02 2.37-.09 3.32-.07 1.16-.19 2.08-.28 2.68v.01c0 .06-.01.1-.02.15z" style="fill:#fe9083"/><path d="M298.49 149.26c.02.13.04.26.05.39.05.27.11.53.19.8 0 0 0 .01.01.02 1.19 4.41 6 8.92 12.07 6.75 6.63-2.37 19.25-29.1 19.25-29.1l-1.27-5.71-29.95 24.4-.33 2.31-.02.14z" style="fill:#cb4d7a"/><path d="M398.221 144.368s1.831-10.105 1.01-17.558c-.821-7.453.212-15.916.212-15.916s1.809-.758 3.136 0c1.326.758 4.421 8.463 3.032 14.653-1.389 6.189-.316 21.032-.316 21.032h2.084l4.547-6.253 2.21-.632s12.726 12 12.537 19.137l-1.663 6.347-15.674-.537-10.232-11.684-.883-8.589z" style="fill:#ee8183"/><linearGradient id="o" x1="178.923" x2="178.923" y1="161.819" y2="139.694" gradientTransform="matrix(-1 0 0 1 600 0)" gradientUnits="userSpaceOnUse"><stop offset=".016" style="stop-color:#ffc2a9"/><stop offset="1" style="stop-color:#ff9595"/></linearGradient><path d="M414.137 139.695s-.329 7.958-2.115 14.779c0 0 .299 2.795 3.567 2.984l.805-.9s.569 3.174 3.458 3.41l2.747-2.747-.711 2.274s.995 2.416 3.6 2.321c0 0 4.358-3.41 4.642-7.863l-4.308-3.647v-2.795l-5.118-3.6-.095-2.037c.002 0-2.998-2.227-6.472-2.179z" style="fill:url(#o)"/><linearGradient id="p" x1="192.855" x2="192.855" y1="161.295" y2="124.671" gradientTransform="matrix(-1 0 0 1 600 0)" gradientUnits="userSpaceOnUse"><stop offset="0" style="stop-color:#ffeadb"/><stop offset=".994" style="stop-color:#c27cb6"/></linearGradient><path d="M399.049 124.672s.767 1.95 1.857 2.707c1.089.758 4.246 1.338 4.246 1.338l.143 17.862h2.084l4.547-6.253s-2.305 3.568-2.447 6.253l1.8.884 1.563-5.353.741 3.852-.737 4.793s-2.696-2.32-7.575-2.415l-.734 1.332s8.826 7.311 10.863 11.621c0 0-4.358-5.542-14.305-11.653l-.947-2.937-1.257-7.011c-.001.002 1.191-10.102.158-15.02z" style="opacity:.6;fill:url(#p)"/><linearGradient id="q" x1="191.667" x2="191.667" y1="186.21" y2="129.75" gradientTransform="matrix(-1 0 0 1 600 0)" gradientUnits="userSpaceOnUse"><stop offset=".016" style="stop-color:#ffc2a9"/><stop offset="1" style="stop-color:#ff9595"/></linearGradient><path d="M391.65 155.8c.82 2.46 9.41 12.69 10.36 14.91.95 2.21 1.52 5.11 1.52 5.11 4.22 9.13 14.43 10.39 14.43 10.39l.47-8.24s5.49-3.16 6.42-4.89l.01-.03.11-.29c.28-1.61.04-7.58.04-7.58l-9.61-3.89c-4.17-5.4-14.31-11.65-14.31-11.65l-.47-2.83c7.28-3.58 6.06-14.41 4.83-15.74-1.23-1.32-3.5-1.32-3.5-1.32s-2.66 8.71-4.36 12.79c-1.71 4.07-6.76 10.8-5.94 13.26z" style="fill:url(#q)"/><path d="M420.611 141.874s-1.074 9.947-4.216 14.684c0 0 3.995-4.958 4.311-12.647l-.095-2.037zM425.823 147.51s-1.044 8.005-5.971 12.458c0 0 4.362-2.179 5.971-9.663v-2.795z" style="fill:#e28183"/><linearGradient id="r" x1="181.57" x2="199.322" y1="177.399" y2="177.399" gradientTransform="matrix(-1 0 0 1 600 0)" gradientUnits="userSpaceOnUse"><stop offset=".016" style="stop-color:#d1a1d6"/><stop offset=".994" style="stop-color:#bd89c4"/></linearGradient><path d="M400.678 168.589s10.835 10.52 17.752 9.381l-.47 8.24s-11.371-.994-15.065-12.955c0 0-1.33-3.437-2.217-4.666z" style="opacity:.91;fill:url(#r)"/><linearGradient id="s" x1="398.996" x2="398.996" y1="220.6" y2="145.099" gradientTransform="matrix(-1 0 0 1 600 0)" gradientUnits="userSpaceOnUse"><stop offset=".016" style="stop-color:#ffc2a9"/><stop offset="1" style="stop-color:#ff9595"/></linearGradient><path d="M171.64 182.89s9.95 18.19 21.6 23.78h3.98l9.19 13.93s5.94-3.73 6.38-15.98c0 0-2.08-2.17-2.59-4.62 0 0 3.28-2.58 4.17-4.47.88-1.9 1.2-7.58 1.83-9.92.63-2.34 6-7.2 7.2-7.83 1.2-.63 6.63-.95 6.63-.95s.76-1.96 0-2.9c-.76-.95-9.22-4.24-13.83-1.08 0 0-.32 2.4-.82 3.67-.51 1.26-4.55 5.74-5.18 5.74-.63 0-3.35-2.27-4.55-4.04-1.15-1.7-7.26-14.87-8.74-19.32a.495.495 0 0 0-.04-.13c-.02-.07-.05-.14-.06-.2-.02-.05-.03-.09-.04-.13-.01-.02-.02-.03-.02-.05-1.14-3.85-7.77-11.24-11.31-13.26 0 0-1.51-.38-2.33 1.51 0 0 2.84 8.09 5.81 12.89.5.81 1.04 1.76 1.6 2.78h.01c2.53 4.65 5.38 10.74 5.79 11.63l.05.11-1.58.81-4.27-4.05-4.38-4.15-10.05 10.61.99 1.26 3.14 4.03-1.59.29-3.7-4.09-3.29 4.13z" style="fill:url(#s)"/><linearGradient id="t" x1="407.916" x2="407.916" y1="196.41" y2="158.9" gradientTransform="matrix(-1 0 0 1 600 0)" gradientUnits="userSpaceOnUse"><stop offset="0" style="stop-color:#ffeadb"/><stop offset=".994" style="stop-color:#c27cb6"/></linearGradient><path d="m173.968 186.757 3.179 4.672S194.6 177.97 198.39 176.83s5.18-.38 5.18-.38l3.91 4.99s-7.2 6.38-7.83 14.97c0 0 2.4-10.86 10.55-14.15-.63 0-3.35-2.27-4.55-4.04-1.15-1.7-7.26-14.87-8.74-19.32.2.76.46 2.24-.16 3.41-.86 1.59-5.92.09-6.22 0h-.01l5.8 11.63.05.11-1.58.81-4.27-4.05 2.14 4.97-15.58 2.75 3.14 4.03-1.59.29-4.662 3.907z" style="opacity:.6;fill:url(#t)"/><linearGradient id="u" x1="415.316" x2="415.316" y1="183.463" y2="166.648" gradientTransform="matrix(-1 0 0 1 600 0)" gradientUnits="userSpaceOnUse"><stop offset="0" style="stop-color:#ffb0b0"/><stop offset=".984" style="stop-color:#ffc2a9"/></linearGradient><path d="M186.137 166.663s-3.031-.442-4.989 3.474l.442 1.263s-2.955.579-5.811 5.368c0 0 2.526 4.611 8.779 6.695 0 0 2.905-.821 3.411-3.284l-.569-1.579 2.274 1.705s2.716.821 3.916-3.221l-7.453-10.421z" style="fill:url(#u)"/><linearGradient id="v" x1="425.069" x2="425.069" y1="186.053" y2="176.832" gradientTransform="matrix(-1 0 0 1 600 0)" gradientUnits="userSpaceOnUse"><stop offset="0" style="stop-color:#ffb0b0"/><stop offset=".984" style="stop-color:#ffc2a9"/></linearGradient><path d="M170.726 181.632s-.632-2.905 2.463-4.8l6 6.632s-.182 2.126-2.779 2.589c0 0-4.105-1.39-5.684-4.421z" style="fill:url(#v)"/><linearGradient id="w" x1="385.63" x2="402.78" y1="204.431" y2="204.431" gradientTransform="matrix(-1 0 0 1 600 0)" gradientUnits="userSpaceOnUse"><stop offset=".016" style="stop-color:#d1a1d6"/><stop offset=".994" style="stop-color:#bd89c4"/></linearGradient><path d="M214.37 195.53s-6.951 7.757-17.15 11.14l4.395 6.662 9.172-11.647L210.2 200s3.667-2.758 4.17-4.47z" style="opacity:.91;fill:url(#w)"/><path d="M181.589 171.4s2.905 4.8 5.811 7.2l.568 1.579s-5.639-3.806-7.714-8.203c0 0 .672-.481 1.335-.576z" style="fill:#e28183"/><path d="M391.65 155.8s4.645-.993 6.571-5.044c1.926-4.051.669-9.916.669-9.916s-3.636 6.975-5.447 9.357c-1.811 2.382-2.298 5.098-1.793 5.603z" style="fill:#ffbcaf"/><linearGradient id="x" x1="283.542" x2="283.542" y1="176.45" y2="140.84" gradientTransform="matrix(-1 0 0 1 600 0)" gradientUnits="userSpaceOnUse"><stop offset="0" style="stop-color:#b4cdf8"/><stop offset="1" style="stop-color:#d3d6fb"/></linearGradient><path d="M305.04 172.84a20.1 20.1 0 0 0 4.84 3.54c.04.03.08.05.12.07 0 0 .05-.03.14-.08l.01-.01c.51-.31 2.25-1.38 4.59-3.14 6.12-4.61 16.34-13.93 19.26-26.49.01-.02.01-.03.02-.05.34-1.49.58-3.01.7-4.59v-.01c.03-.41.06-.82.07-1.24 0 0-2.03 4.77-5.55 9.92-4.14 6.06-10.35 12.67-17.77 12.71-6.42.04-9.71-4.35-11.38-8.4-.71-1.72-1.13-3.37-1.35-4.6-.01-.01-.01-.02-.01-.02-.07-.36-.12-.68-.17-.95v-.01c-.02-.14-.04-.26-.05-.37-.06-.45-.08-.71-.08-.71s-2.46 15.36 6.61 24.43z" style="fill:url(#x)"/><linearGradient id="y" x1="265.21" x2="301.874" y1="158.61" y2="158.61" gradientTransform="matrix(-1 0 0 1 600 0)" gradientUnits="userSpaceOnUse"><stop offset="0" style="stop-color:#b2e8ff"/><stop offset="1" style="stop-color:#4964bb"/></linearGradient><path d="M305.04 172.84a20.1 20.1 0 0 0 4.84 3.54h.12l.14-.01.01-.01c.51-.31 2.25-1.38 4.59-3.14 6.12-4.61 16.34-13.93 19.26-26.49.01-.02.01-.03.02-.05.34-1.49.58-3.01.7-4.59v-.01c.03-.41.06-.82.07-1.24 0 0-2.03 4.77-5.55 9.92 0 0-4.04 11.1-12.78 16.6-4.38 2.75-7.7 2.35-10.14.73-2.44-1.61-4.02-4.42-4.95-6.54-.93-2.13-1.23-4.12-1.28-5.58-.01-.33-.01-.63 0-.9-.71-1.72-1.13-3.37-1.35-4.6-.01-.01-.01-.02-.01-.02-.07-.36-.12-.68-.17-.95v-.01c-.02-.14-.04-.26-.05-.37-.06-.45-.08-.71-.08-.71s-2.46 15.36 6.61 24.43z" style="opacity:.5;fill:url(#y)"/><linearGradient id="z" x1="273.058" x2="273.058" y1="318.729" y2="139.29" gradientTransform="matrix(-1 0 0 1 600 0)" gradientUnits="userSpaceOnUse"><stop offset="0" style="stop-color:#74a1ef"/><stop offset="1" style="stop-color:#979dee"/></linearGradient><path d="M248.88 263.53c.11.05.16.08.16.08.82.1 3.37-.46 6.71-3.35l.01-.01c0-.01.01-.02.03-.03.01-.01.02-.03.04-.04 2.8-2.45 6.16-6.54 9.51-13.24 6.7-13.39 8.62-22.33 8.93-23.89l.04-.24 3.91 6.2c2.65 7.97 7.67 40.95 7.58 42.37-.09 1.42-4.45 8.34-4.36 9.19 0 0 0 .01.01.02.12.86 2.08 2.75 2.64 4.81.38 1.37-2.28 5.69-4.15 8.92v.01c-.97 1.68-1.72 3.06-1.72 3.58 0 1.51 4.74 8.9 4.74 8.9v3.98l.07.07.22.2.18.15c1.8 1.42 9.43 6.07 33.27 7.35 28.25 1.51 47.07-7.58 47.07-7.58l-1.42-3.89s1.32-1.13 1.42-1.7c.09-.57-1.04-1.9-1.04-1.9s2.84-1.51 2.84-3.41c0-1.89-5.69-7.76-5.5-12.79.19-5.02 4.55-9.47 5.12-12.31s-7.39-9.85-7.39-9.85c6.82-21.6 8.15-50.59 8.15-50.59l1.32-1.52s8.15 18.57 15.54 27.66a63.65 63.65 0 0 0 2.77 3.18c2.06 2.23 4.25 4.32 6.36 6.15 5.12 4.46 9.77 7.39 10.95 7.16 1.9-.38 9.48-15.35 9.13-30.7-.16-7.3-4.56-15.47-9.13-22.02-.49-.7-.98-1.39-1.48-2.06-3.24-4.41-6.35-7.87-7.84-9.45-.58-.62-.91-.95-.91-.95s1.04-3.35 1.75-6.26c.01-.07.03-.14.05-.21 0-.03.01-.07.02-.1.01-.05.02-.07.02-.07.42-1.79.68-3.34.44-3.72-.63-1.01-4.3-2.15-4.93-2.9-.63-.76-3.28-13.52-5.3-14.91-1.94-1.33-5.35-2.3-16.72-6.77-.56-.22-1.13-.44-1.73-.68-12.75-5.05-25.26-11.18-25.26-11.18l-4.8-5.9h-2.14l.7 1.5.03.05c-.34 1.52-.73 2.98-1.17 4.37-.01.04-.02.08-.04.11-6.6 20.82-23.58 27.53-23.58 27.53-11.8-8.71-11.57-22.54-11.57-22.54v-1.9l-2.21.66-1.51 3.6s-2.56 3.98-12.7 8.44c-1.75.77-3.63 1.74-5.57 2.85-9.28 5.27-19.6 13.42-20.39 15.15-.08.18-.17.46-.27.86v.01c-1.09 4.28-3.33 20.31-5.41 26.03-1.3 3.57-3.35 5.54-4.86 6.56-.01.01-.01.01-.02.01-1.12.77-1.94 1.01-1.94 1.01-.16.88-.31 1.75-.45 2.61-4.35 27.42 3.92 46.03 5.78 47.33z" style="fill:url(#z)"/><linearGradient id="A" x1="198.59" x2="242.29" y1="206.915" y2="206.915" gradientTransform="matrix(-1 0 0 1 600 0)" gradientUnits="userSpaceOnUse"><stop offset="0" style="stop-color:#b2e8ff"/><stop offset="1" style="stop-color:#4964bb"/></linearGradient><path d="m357.71 211.77 8.24 2.77 1.32-1.52s8.15 18.57 15.54 27.66a63.65 63.65 0 0 0 2.77 3.18c2.06 2.23 4.25 4.32 6.36 6.15l6.28-27.07 3.19-20.55c-3.24-4.41-6.35-7.87-7.84-9.45-.58-.62-.91-.95-.91-.95s1.04-3.35 1.75-6.26c.01-.07.03-.14.05-.21 0-.03.01-.07.02-.1.01-.05.02-.07.02-.07.42-1.79.68-3.34.44-3.72-.63-1.01-4.3-2.15-4.93-2.9-.63-.76-3.28-13.52-5.3-14.91 0 0 1.32 12.25-5.69 27.79l-3.41 4.8-9.98 8.02s-3.79 5.03-7.92 7.34z" style="opacity:.5;fill:url(#A)"/><linearGradient id="B" x1="197.238" x2="197.238" y1="257.17" y2="173.26" gradientTransform="matrix(-1 0 0 1 600 0)" gradientUnits="userSpaceOnUse"><stop offset="0" style="stop-color:#74a1ef"/><stop offset="1" style="stop-color:#aeb3f3"/></linearGradient><path d="M381.55 233.93c1.77 13.13 21.34 23.24 21.34 23.24 4.36 0 9.23-7.58 13.65-16.93s4.69-36.21 4.92-37.87c.24-1.66 2.7-4.98 2.85-6.4.14-1.42-3.98-4.36-3.98-4.36l.03-.07.03-.07c.43-.92 2.85-6.11 2.68-7.06-.19-1.04-4.82-3.31-4.82-3.31l-.29 5.11s-10.78-2.04-14.43-10.39l-.64-2.56-1.8 1.2v10.99s-.37 1.71-.94 1.71-4.77-2.1-5.65-1.81c-.89.29-1.76 6.17-2.94 6.92-1.17.76-4.3 2.94-4.77 3.98-.21.47-.23 2.16-.25 4.15-.03 2.44-.05 5.32-.41 6.94-.67 2.93-6.35 13.45-4.58 26.59z" style="fill:url(#B)"/><linearGradient id="C" x1="341.53" x2="397.836" y1="232.986" y2="232.986" gradientTransform="matrix(-1 0 0 1 600 0)" gradientUnits="userSpaceOnUse"><stop offset="0" style="stop-color:#81aaf1"/><stop offset="1" style="stop-color:#aeb3f3"/></linearGradient><path d="M202.56 222.68c.88 1.39 5.3 4.3 6.44 5.44 1.14 1.13 0 4.87 0 4.87 18.57 19.71 37.93 29.58 39.88 30.54.11.05.16.08.16.08 11.66-7.84 10.66-20.75 6.79-31.63-3.7-10.44-10.04-19.01-10.32-19.38l-.01-.01-.01-.01c-.21-.08-3.54-1.46-5.92-1.64-.79-.06-1.51.25-2.19.68-1.42.88-2.62 2.27-3.78 1.69-1.71-.86-5.53-9.89-8.12-10.14-1.81-.17-4.32 1.67-5.99 2.72-.73.46-1.3.77-1.58.69-.95-.25-4.17-4.11-4.43-4.21-.25-.11-1.72.97-1.72.97l1.03 1.28c-1.58 9.1-6.76 15.22-6.76 15.22l-3.47-5.08s-.89 6.53 0 7.92z" style="fill:url(#C)"/><linearGradient id="D" x1="361.763" x2="361.763" y1="263.621" y2="179.11" gradientTransform="matrix(-1 0 0 1 600 0)" gradientUnits="userSpaceOnUse"><stop offset="0" style="stop-color:#b2e8ff"/><stop offset="1" style="stop-color:#4964bb"/></linearGradient><path d="M202.56 222.68c.88 1.39 5.3 4.3 6.44 5.44 1.14 1.13 0 4.87 0 4.87 18.57 19.71 37.93 29.58 39.88 30.54.11.05.16.08.16.08 1.52.19 8.91-1.89 16.3-16.67 6.7-13.39 8.62-22.33 8.93-23.89l.04-.24-1.63-2.21-2.42-27.28-1.7 5.49c-6.44-7.77-12.51-19.7-12.51-19.7l-.27.86v.01c-1.09 4.28-3.33 20.31-5.41 26.03-1.3 3.57-3.35 5.54-4.86 6.56l-.01.02.01.01c5.93 5.41 8.87 13.19 10.32 19.38 1.33 5.68 1.42 10.03 1.42 10.03s-1.64-7.7-6.82-16.96c-1.88-3.37-4.62-6.38-7.33-8.85a58.853 58.853 0 0 0-5.72-4.58c-1.42.88-2.62 2.27-3.78 1.69 7.8 11.71 7.61 34.89.28 30.47-7.32-4.42-8.996-13.801-8.996-13.801 1.73-11.43 1.214-24.322-.176-26.771-1.687.056-6.518 3.453-6.798 3.373.44 13.45-5.88 22.43-5.88 22.43l-4.17-6.45c6.07-10.23 5.62-20.19 5.62-20.19-.25-.11-1.72.97-1.72.97l1.03 1.28c-1.58 9.1-6.76 15.22-6.76 15.22l-3.47-5.08c0-.001-.89 6.529 0 7.919z" style="opacity:.5;fill:url(#D)"/><linearGradient id="E" x1="175.69" x2="317.04" y1="246.595" y2="246.595" gradientTransform="matrix(-1 0 0 1 600 0)" gradientUnits="userSpaceOnUse"><stop offset="0" style="stop-color:#b2e8ff"/><stop offset="1" style="stop-color:#4964bb"/></linearGradient><path d="M282.96 306.81v3.98l.07.07.22.2.18.15c1.8 1.42 9.43 6.07 33.27 7.35 28.25 1.51 47.07-7.58 47.07-7.58l-1.42-3.89s1.32-1.13 1.42-1.7c.09-.57-1.04-1.9-1.04-1.9s2.84-1.51 2.84-3.41c0-1.71-4.64-6.66-5.39-11.31-.09-.5-.13-.99-.11-1.48.19-5 4.51-9.43 5.11-12.27.01-.03.01-.04.01-.04.57-2.84-7.39-9.85-7.39-9.85 6.82-21.6 8.15-50.59 8.15-50.59l1.32-1.52s8.15 18.57 15.54 27.66c7.39 9.1 18.19 16.87 20.08 16.49 4.36 0 9.23-7.58 13.65-16.93s4.69-36.21 4.92-37.87c.24-1.66 2.7-4.98 2.85-6.4-4.74 8.15-12.29 5.75-12.29 5.75 5.47.12 8.31-10.11 8.31-10.11l.03-.07.03-.07 2.67-7.05c-.3.34-6.55 7.33-12.59 3.02-6.19-4.42-9.38-12.98-9.38-12.98v10.99s-.37 1.71-.94 1.71c.37 5.06 1.44 11.22 2.74 17.29 2.81 13.13 6.66 25.81 6.66 25.81s-10.44-5.68-14.11-20.08c-1.75-6.89-2.04-12.88-1.87-17.24.15-3.73.64-6.28.84-7.21.01-.07.03-.14.05-.21 0-.03.01-.07.02-.1 0-.02.01-.04.01-.05l-1.01 2.14-1.92 4.76c-2.23 18.48 2.37 46.33 2.37 46.33-6.7-8.34-8.09-26.78-7.8-31.26.13-2.14.3-4.78.41-6.94.15-2.36.25-4.15.25-4.15l-13.71 8.18 2.53-8.02-9.98 8.02s-8.97 10.8-18.19 12.06c-9.22 1.27-43.07.51-43.07.51s29.43 1.89 38.02 4.42c8.59 2.53 10.23 5.43 10.23 5.43-6.21 31.59-40.58 42.24-41.65 42.56 31.18-4.68 45.69-31.19 45.69-31.19s.51 14.91-1.89 20.59-16.55 19.58-34.74 22.48c-1.53.24-3.04.39-4.53.46-15.34.72-28.04-7.12-29.34-7.96-.07-.05-.11-.07-.11-.07s.01.02.03.05c.49.75 6.78 9.59 32.18 10.56 1.54.06 3.04.05 4.5-.01h.02c23.54-.99 35.53-16.67 35.53-16.67s8.71 4.68 3.15 11.62c-.06.07-.12.15-.18.22-1.64 1.89-5.25 4.2-9.52 6.58-.12.07-.24.14-.35.2-5.16 2.85-11.21 5.79-15.89 8.22-.03.01-.05.02-.07.03-2.86 1.49-5.21 2.77-6.52 3.73-.01 0-.01.01-.01.01-1.32.96-1.59 1.58-.3 1.73 6.57.76 31.45-4.67 32.46-3.16 1.01 1.52-1.23 5.43-1.23 5.43-22.84 11.32-71.71 5.74-73.25 5.57 40.9 10.47 74.36-2.79 74.36-2.79l-1.11 3.92s-18.22 6.31-39.69 6.82c-21.48.5-34.87-4.99-34.87-4.99l-2.33-3.98z" style="opacity:.5;fill:url(#E)"/><linearGradient id="F" x1="300.305" x2="327.323" y1="222.941" y2="222.941" gradientTransform="matrix(-1 0 0 1 600 0)" gradientUnits="userSpaceOnUse"><stop offset="0" style="stop-color:#b2ffd5"/><stop offset="1" style="stop-color:#4964bb"/></linearGradient><path d="M299.695 216.874s-16.268.884-27.018 3.726l5.544 8.409s8.337-7.335 21.474-12.135z" style="opacity:.5;fill:url(#F)"/><linearGradient id="G" x1="275.8" x2="315.506" y1="270.358" y2="270.358" gradientTransform="matrix(-1 0 0 1 600 0)" gradientUnits="userSpaceOnUse"><stop offset="0" style="stop-color:#b2ffd5"/><stop offset="1" style="stop-color:#4964bb"/></linearGradient><path d="M284.494 261.713s10.148 8.466 20.127 12.382c9.979 3.916 19.579 4.295 19.579 4.295s-5.737 1.705-19.853-.568c-14.116-2.274-18.946-9.919-18.946-9.919l-.907-6.19z" style="opacity:.5;fill:url(#G)"/><linearGradient id="H" x1="277.639" x2="320.06" y1="288.312" y2="288.312" gradientTransform="matrix(-1 0 0 1 600 0)" gradientUnits="userSpaceOnUse"><stop offset="0" style="stop-color:#b2ffd5"/><stop offset="1" style="stop-color:#4964bb"/></linearGradient><path d="M279.94 294.32v.01c18.78 4.85 42.62-2.11 42.42-2.96-.2-.85-6.53.38-21.21-2.56-14.23-2.85-19.39-7.91-19.7-8.22.12.86 2.08 2.75 2.64 4.81.38 1.37-2.28 5.69-4.15 8.92z" style="opacity:.5;fill:url(#H)"/><linearGradient id="I" x1="241.13" x2="241.13" y1="243.86" y2="196.25" gradientTransform="matrix(-1 0 0 1 600 0)" gradientUnits="userSpaceOnUse"><stop offset="0" style="stop-color:#b2ffd5"/><stop offset="1" style="stop-color:#4964bb"/></linearGradient><path d="M330.95 219.42c16.04 1.63 20.36 6.1 20.36 6.1 4.51.57 14.64-10.98 14.64-10.98l1.32-1.52s8.15 18.57 15.54 27.66a63.65 63.65 0 0 0 2.77 3.18l-1.05-2.36s-1.72-.82-2.22-9.85c-.51-9.02 3.79-22.48 3.82-24.31s.66-11.09.66-11.09l-13.71 8.18 2.53-8.02-9.98 8.02s-3.91 5.88-13.78 10.78c-9.31 4.63-19.75 4.26-20.9 4.21z" style="opacity:.5;fill:url(#I)"/><linearGradient id="J" x1="244.963" x2="244.963" y1="247.862" y2="211.772" gradientTransform="matrix(-1 0 0 1 600 0)" gradientUnits="userSpaceOnUse"><stop offset="0" style="stop-color:#b2ffd5"/><stop offset="1" style="stop-color:#4964bb"/></linearGradient><path d="m367.27 213.02-9.556-1.248s-3.821 2.531-11.487 5.651l6.393 9.427s-2.536 13.439-9.816 21.012c0 0 19.321-10.731 22.037-19.755l2.429-15.087z" style="opacity:.5;fill:url(#J)"/><linearGradient id="K" x1="187.925" x2="187.925" y1="201.727" y2="174.46" gradientTransform="matrix(-1 0 0 1 600 0)" gradientUnits="userSpaceOnUse"><stop offset="0" style="stop-color:#b2ffd5"/><stop offset="1" style="stop-color:#4964bb"/></linearGradient><path d="m423.06 184.42-2.73 7.19s-2.785 9.704-8.31 10.11c-5.525.406-10.93-16.27-10.93-16.27v-10.99s5.878 12.603 12.226 14.024c6.347 1.421 9.744-4.064 9.744-4.064z" style="opacity:.5;fill:url(#K)"/><linearGradient id="L" x1="209.99" x2="220.979" y1="177.715" y2="177.715" gradientTransform="matrix(-1 0 0 1 600 0)" gradientUnits="userSpaceOnUse"><stop offset="0" style="stop-color:#b2ffd5"/><stop offset="1" style="stop-color:#4964bb"/></linearGradient><path d="M390.01 178.73s-4.926 9.849-10.989 12.881c0 0 7.21-17.497 5.689-27.79 0-.001 2.65 1.649 5.3 14.909z" style="opacity:.5;fill:url(#L)"/><linearGradient id="M" x1="329.447" x2="329.447" y1="243.86" y2="193.32" gradientTransform="matrix(-1 0 0 1 600 0)" gradientUnits="userSpaceOnUse"><stop offset="0" style="stop-color:#b2e8ff"/><stop offset="1" style="stop-color:#4964bb"/></linearGradient><path d="m270.26 193.32-1.7 5.49-1.725 45.05s4.368-8.571 7.435-20.81l-1.593-2.45s-2.673-16.981-2.417-27.28z" style="opacity:.76;fill:url(#M)"/><linearGradient id="N" x1="386.268" x2="386.268" y1="232.99" y2="206.58" gradientTransform="matrix(-1 0 0 1 600 0)" gradientUnits="userSpaceOnUse"><stop offset="0" style="stop-color:#b2e8ff"/><stop offset="1" style="stop-color:#4964bb"/></linearGradient><path d="M217.91 206.58s.962 22.13-8.443 24.044L209 232.99s12.167-.451 8.91-26.41z" style="opacity:.5;fill:url(#N)"/><linearGradient id="O" x1="356.316" x2="356.316" y1="231.81" y2="211.62" gradientTransform="matrix(-1 0 0 1 600 0)" gradientUnits="userSpaceOnUse"><stop offset="0" style="stop-color:#b2e8ff"/><stop offset="1" style="stop-color:#4964bb"/></linearGradient><path d="M233.6 213.31s.36.793 3.78-1.69c0 0 11.83 8.379 16.388 20.19 0 0-7.292-10.851-11.172-12.025-3.88-1.174-4.817 3.156-4.817 3.156s-1.535-6.1-4.179-9.631z" style="opacity:.3;fill:url(#O)"/><linearGradient id="P" x1="182.217" x2="182.217" y1="203.468" y2="195.97" gradientTransform="matrix(-1 0 0 1 600 0)" gradientUnits="userSpaceOnUse"><stop offset="0" style="stop-color:#b2ffd5"/><stop offset="1" style="stop-color:#4964bb"/></linearGradient><path d="M424.31 195.97s-4.552 8.39-13.078 5.757c0 0 5.109 3.444 10.228.643 0 0 3.177-5.453 2.85-6.4z" style="opacity:.5;fill:url(#P)"/><linearGradient id="Q" x1="202.246" x2="202.246" y1="226.327" y2="185.35" gradientTransform="matrix(-1 0 0 1 600 0)" gradientUnits="userSpaceOnUse"><stop offset="0" style="stop-color:#b2e8ff"/><stop offset="1" style="stop-color:#4964bb"/></linearGradient><path d="M394.5 185.35s-6.258 23.399 10.068 40.977c0 0-10.605-5.443-13.007-18.043-2.403-12.6 2.939-22.934 2.939-22.934z" style="opacity:.5;fill:url(#Q)"/><linearGradient id="R" x1="307.67" x2="307.67" y1="197.484" y2="166.648" gradientTransform="matrix(-1 0 0 1 600 0)" gradientUnits="userSpaceOnUse"><stop offset="0" style="stop-color:#b2ffd5"/><stop offset="1" style="stop-color:#4964bb"/></linearGradient><path d="M282.36 166.648s.705 10.562 5.767 18.141c5.062 7.579 15.104 12.695 15.104 12.695s-12.6-4.642-18.379-11.179c-5.778-6.537-2.492-19.657-2.492-19.657z" style="opacity:.5;fill:url(#R)"/><linearGradient id="S" x1="267.272" x2="267.272" y1="193.316" y2="150.756" gradientTransform="matrix(-1 0 0 1 600 0)" gradientUnits="userSpaceOnUse"><stop offset="0" style="stop-color:#b2ffd5"/><stop offset="1" style="stop-color:#4964bb"/></linearGradient><path d="M346.81 150.756s0 8.832-2.842 17.832c-2.842 9.001-27.512 24.727-27.512 24.727s25.427-10.563 30.354-20.06c4.927-9.497 0-22.499 0-22.499z" style="opacity:.5;fill:url(#S)"/><linearGradient id="T" x1="252.901" x2="323.986" y1="201.1" y2="201.1" gradientTransform="matrix(-1 0 0 1 600 0)" gradientUnits="userSpaceOnUse"><stop offset="0" style="stop-color:#4634a0"/><stop offset="1" style="stop-color:#427cc0"/></linearGradient><path d="M347.099 192.815V207.2s-33.11-.267-70.237 2.192l-.848-12.947s32.277-3.827 71.085-3.63z" style="fill:url(#T)"/><linearGradient id="U" x1="259.03" x2="305.29" y1="160.08" y2="160.08" gradientTransform="matrix(-1 0 0 1 600 0)" gradientUnits="userSpaceOnUse"><stop offset="0" style="stop-color:#b2e8ff"/><stop offset="1" style="stop-color:#4964bb"/></linearGradient><path d="M294.71 152.67c.78 9.3 3.61 15.78 6.63 20.15 4.16 6 8.66 8.05 8.66 8.05 4.5-1.96 8.4-4.4 11.76-7.09 14.26-11.4 18.86-27.2 19.21-28.5-6.02 14.54-14.86 23.35-21.56 28.31-5.4 4.01-9.41 5.52-9.41 5.52v-4.65c1.07-.4 2.11-.86 3.1-1.36 11.8-5.95 18-18.35 20.9-26.37.01-.02.01-.03.02-.05 1.57-4.34 2.18-7.39 2.18-7.39h-2.14l.7 1.5.03.05c-.34 1.52-.73 2.98-1.17 4.37-.01.04-.02.08-.04.11-6.6 20.82-23.58 27.53-23.58 27.53-11.8-8.71-11.57-22.54-11.57-22.54v-1.9l-2.21.66-1.51 3.6z" style="opacity:.5;fill:url(#U)"/><linearGradient id="V" x1="377.951" x2="377.951" y1="229.979" y2="203.207" gradientTransform="matrix(-1 0 0 1 600 0)" gradientUnits="userSpaceOnUse"><stop offset="0" style="stop-color:#b2e8ff"/><stop offset="1" style="stop-color:#4964bb"/></linearGradient><path d="M224.708 203.207s3.208 10.477.176 26.771c0 0-1.516-20.653-2.653-22.453-1.137-1.8-4.322-.946-4.322-.946s5.012-2.764 6.799-3.372z" style="opacity:.3;fill:url(#V)"/><linearGradient id="W" x1="340.11" x2="340.11" y1="260.18" y2="179.11" gradientTransform="matrix(-1 0 0 1 600 0)" gradientUnits="userSpaceOnUse"><stop offset="0" style="stop-color:#b2e8ff"/><stop offset="1" style="stop-color:#4964bb"/></linearGradient><path d="M255.83 260.18c2.8-2.45 6.16-6.54 9.51-13.24 6.7-13.39 8.62-22.33 8.93-23.89l-1.59-2.45-2.13-20.6-1.99-1.19s-7.11-7.85-12.51-19.7c-.08.18-.17.46-.27.86v.01c-1.09 4.28-3.33 20.31-5.41 26.03-1.3 3.57-3.35 5.54-4.86 6.56 0 0 12.31 18.26 12.91 31.29.53 11.86-2.11 15.72-2.59 16.32z" style="opacity:.5;fill:url(#W)"/><linearGradient id="X" x1="252.95" x2="252.95" y1="298.26" y2="275.02" gradientTransform="matrix(-1 0 0 1 600 0)" gradientUnits="userSpaceOnUse"><stop offset="0" style="stop-color:#b2e8ff"/><stop offset="1" style="stop-color:#4964bb"/></linearGradient><path d="M328.92 298.26s22.19-3.64 31.25-9.48c0 0 .01 0 .01-.01-.09-.5-.13-.99-.11-1.48.19-5 4.51-9.43 5.11-12.27-.1.27-.75 1.77-3.9 4.47-1.99 1.71-5 3.91-9.52 6.58-.12.07-.24.14-.35.2-6.4 3.78-11.91 6.34-15.89 8.22-.03.01-.05.02-.07.03-3.58 1.68-5.9 2.79-6.52 3.73-.01 0-.01.01-.01.01z" style="opacity:.5;fill:url(#X)"/><linearGradient id="Y" x1="298.095" x2="298.095" y1="291.876" y2="280.59" gradientTransform="matrix(-1 0 0 1 600 0)" gradientUnits="userSpaceOnUse"><stop offset="0" style="stop-color:#b2e8ff"/><stop offset="1" style="stop-color:#4964bb"/></linearGradient><path d="M281.45 280.59c.12.86 2.08 2.75 2.64 4.81 0 0 8.14 8.62 38.27 5.97-.2-.85-6.53.38-21.21-2.56-14.23-2.85-19.39-7.91-19.7-8.22z" style="opacity:.5;fill:url(#Y)"/><path d="M286.093 201.072c.14 1.938-1.26 3.266-3.6 3.446l-1.213.094.16 2.057-2.829.225c-.225-2.789-.45-5.579-.673-8.369 1.357-.11 2.714-.217 4.071-.321 2.357-.182 3.943.931 4.084 2.868zm-2.867.214c-.046-.61-.448-.952-1.232-.892l-1.036.081.152 1.961 1.035-.08c.782-.061 1.127-.46 1.081-1.07zM290.853 203.859l-.769.053.147 2.106c-.943.066-1.886.133-2.829.202l-.604-8.374c1.357-.099 2.715-.194 4.072-.288 2.357-.162 3.934.964 4.058 2.902.078 1.209-.441 2.156-1.416 2.738.646.822 1.29 1.645 1.934 2.469-1.007.065-2.014.132-3.021.2-.523-.67-1.047-1.339-1.572-2.008zm-.016-4.11-1.037.072.136 1.962 1.035-.072c.782-.054 1.13-.45 1.089-1.06-.04-.611-.439-.956-1.223-.902zM295.734 201.441c-.164-2.537 1.737-4.512 4.495-4.677 2.758-.165 4.878 1.57 5.016 4.108.138 2.539-1.763 4.492-4.495 4.656-2.731.163-4.852-1.549-5.016-4.087zm6.646-.406c-.075-1.305-.965-2.046-2.015-1.983-1.049.063-1.846.905-1.766 2.21.08 1.305.97 2.043 2.015 1.98 1.045-.063 1.841-.902 1.766-2.207zM305.303 204.016c.475-.627.951-1.254 1.428-1.88.475.527.91.78 1.378.755.589-.031.895-.407.86-1.09l-.164-3.186-2.871.153-.115-2.132c1.898-.104 3.796-.202 5.694-.296l.251 5.151c.112 2.3-1.044 3.484-3.297 3.602-1.308.07-2.422-.301-3.164-1.077zM320.114 202.218l.088 2.133c-2.327.096-4.654.201-6.981.312l-.4-8.386c2.293-.11 4.586-.213 6.879-.308l.087 2.133c-1.355.056-2.711.115-4.066.177l.044.983c1.189-.054 2.379-.106 3.568-.156l.085 2.037c-1.187.05-2.374.102-3.561.156l.05 1.102c1.403-.064 2.805-.125 4.207-.183zM320.792 200.125c-.106-2.576 1.817-4.469 4.54-4.568 1.657-.06 2.983.496 3.851 1.547-.583.551-1.164 1.103-1.745 1.655-.516-.606-1.119-.945-1.879-.918-1.183.043-1.949.888-1.9 2.171.049 1.282.873 2.067 2.05 2.025.758-.027 1.333-.408 1.805-1.048.616.511 1.23 1.022 1.844 1.534-.793 1.106-2.068 1.749-3.711 1.808-2.696.098-4.749-1.629-4.855-4.206zM331.805 197.73c-.825.025-1.649.051-2.474.078l-.07-2.194c2.604-.085 5.207-.16 7.811-.226l.054 2.194-2.474.065.169 6.198c-.944.026-1.887.053-2.831.082l-.185-6.197zM337.473 203.105l.862-2.085c.805.449 1.869.724 2.795.704.806-.017 1.09-.191 1.085-.479-.022-1.058-4.657-.101-4.735-3.227-.039-1.558 1.247-2.865 3.872-2.921 1.137-.024 2.315.193 3.206.669l-.82 2.066c-.841-.404-1.629-.592-2.365-.576-.833.018-1.093.264-1.087.551.022 1.005 4.672.071 4.726 3.168.026 1.535-1.258 2.852-3.86 2.907-1.403.031-2.827-.282-3.679-.777z" style="fill:#d1fffc"/><path d="m276.44 163.96 19.26 6.24 5.64 2.62.03.01 3.67.01 4.96.01 3.1.25 1.64.12 4.67.37 2.35.19 23.1-8.36 4.13-1.49 19-6.88c-.56-.22-1.13-.44-1.73-.68-12.75-5.05-25.26-11.18-25.26-11.18l-4.8-5.9h-2.14a71.163 71.163 0 0 1-4-11.17l-1.27-5.71c-.09-.55-.13-.85-.13-.85l-6.8 3.59-22.93 18.34c.02 1.25-.02 2.37-.09 3.32l-.33 2.31c-.06-.45-.08-.71-.08-.71l-2.21.66-1.51 3.6s-2.56 3.98-12.7 8.44c-1.75.77-3.63 1.74-5.57 2.85z" style="opacity:.5;fill:#7a4ac0"/><linearGradient id="Z" x1="297.598" x2="297.598" y1="146.812" y2="69.605" gradientTransform="matrix(-1 0 0 1 600 0)" gradientUnits="userSpaceOnUse"><stop offset=".016" style="stop-color:#ffc2a9"/><stop offset="1" style="stop-color:#ff9595"/></linearGradient><path d="M291.11 146.39s8.98 2.02 18.89-2.78 18.24-18.95 18.75-22.48c.5-3.54-3.79-12.76-3.79-19.96 0-7.2 3.53-19.58-2.4-26.28-5.94-6.69-33.22-7.7-42.07.89 0 0-2.74 6.88-2.74 10.77 0 .94.17 2.32.42 3.91.08.59.19 1.22.29 1.87.79 4.71 1.88 10.46 1.37 12.98-.18.88-.46 1.69-.79 2.46v.01c-1.09 2.52-2.71 4.53-3 6.71-.38 2.85 3.44 23.06 15.07 31.9z" style="fill:url(#Z)"/><linearGradient id="aa" x1="268.816" x2="268.816" y1="115.657" y2="92.895" gradientTransform="matrix(-1 0 0 1 600 0)" gradientUnits="userSpaceOnUse"><stop offset=".016" style="stop-color:#ffc2a9"/><stop offset="1" style="stop-color:#ff9595"/></linearGradient><path d="M325.033 99.137s2.451-6.147 8.609-6.242c0 0 3.6 1.421 4.168 4.169 0 0-1.326 9.947-2.842 14.589-1.516 4.642-7.074 3.971-7.074 3.971s-4.838-7.403-2.861-16.487z" style="fill:url(#aa)"/><linearGradient id="ab" x1="308.329" x2="309.283" y1="124.265" y2="119.296" gradientTransform="matrix(-1 0 0 1 600 0)" gradientUnits="userSpaceOnUse"><stop offset="0" style="stop-color:#e1616a"/><stop offset="1" style="stop-color:#ff8883"/></linearGradient><path d="M301.366 119.392s-2.051-.16-2.935.503c-.884.663-4.105 3.789-8.179 4.642-4.074.853-6.806-2.616-7.674-2.794-.867-.178-1.822 1.05-1.822 1.05s.374-1.417 2.495-2.063c0 0 .859 3.267 6.763 2.149 5.904-1.118 8.416-3.742 8.416-3.742l.3-.537c.002 0 1.666.346 2.636.792z" style="fill:url(#ab)"/><linearGradient id="ac" x1="299.714" x2="299.714" y1="120.463" y2="70.726" gradientTransform="matrix(-1 0 0 1 600 0)" gradientUnits="userSpaceOnUse"><stop offset="0" style="stop-color:#ffeadb"/><stop offset=".994" style="stop-color:#c27cb6"/></linearGradient><path d="m310.08 88.799-.08-.632s-5.89-10.336-17.543-10.62c-11.653-.284-14.285 7.018-14.285 7.018l-2.158-3.277 4.917-9.994 34.237-.568 8.337 6.726 1.053 16.466-3.706 21.739-9.019 4.806-2.546-2.258c.94-7.279 6.354-13.929 6.354-13.929l-3.947-2.741s-10.137 4.907-15.995 3.438c0 0-4.405-12.858-4.153-22.384.001 0 15.017 2.222 18.534 6.21z" style="opacity:.6;fill:url(#ac)"/><linearGradient id="ad" x1="289.399" x2="308.938" y1="85.426" y2="85.426" gradientTransform="matrix(-1 0 0 1 600 0)" gradientUnits="userSpaceOnUse"><stop offset=".006" style="stop-color:#651d4f"/><stop offset="1" style="stop-color:#93364f"/></linearGradient><path d="M310.601 89.564s-.568-3.723-6.853-5.213c-6.999-1.659-12.686-3.062-12.686-3.062s1.239 4.083 3.573 5.614c0 0 7.406-.269 11.155.583 3.748.852 4.811 2.078 4.811 2.078z" style="fill:url(#ad)"/><linearGradient id="ae" x1="315.858" x2="322.279" y1="89.204" y2="89.204" gradientTransform="matrix(-1 0 0 1 600 0)" gradientUnits="userSpaceOnUse"><stop offset=".006" style="stop-color:#651d4f"/><stop offset="1" style="stop-color:#93364f"/></linearGradient><path d="M278.172 84.565s3.554 2.74 5.97 9.277c0 0-2.321-3.032-4.453-2.984-1.461.033-1.227 1.475-1.227 1.475s-1.452-3.907-.29-7.768z" style="fill:url(#ae)"/><linearGradient id="af" x1="297.289" x2="297.289" y1="100.095" y2="90.242" gradientTransform="matrix(-1 0 0 1 600 0)" gradientUnits="userSpaceOnUse"><stop offset="0" style="stop-color:#cf6074"/><stop offset="1" style="stop-color:#f37270"/></linearGradient><path d="M308.253 100.095s-.379-7.863-8.053-9.853c0 0-2.747 3.553-3.032 7.579 0 0 4.074-.758 11.085 2.274z" style="fill:url(#af)"/><linearGradient id="ag" x1="316.942" x2="316.942" y1="103.221" y2="94.647" gradientTransform="matrix(-1 0 0 1 600 0)" gradientUnits="userSpaceOnUse"><stop offset="0" style="stop-color:#cf6074"/><stop offset="1" style="stop-color:#ff817f"/></linearGradient><path d="M286.274 103.221s-.621-6.26-4.216-8.574c0 0-2.45 1.836-2.196 7.076 0 0 2.148-.776 6.412 1.498z" style="fill:url(#ag)"/><path d="M308.253 100.095s-2.495 3.063-9.474 3.663c0 0-1.33-2.024-1.202-5.985 0-.001 6.413-.615 10.676 2.322zM286.274 103.221v.916s-1.074 2.242-4.926 2.621c0 0-1.242-1.935-1.346-5.072-.001 0 2.451-.612 6.272 1.535z" style="fill:#ffebed"/><path d="M300.792 97.61s1.769 2.153 1.611 5.547c0 0-2.321.546-3.624.601 0 0-1.527-2.126-1.202-5.985 0-.001 2.029-.437 3.215-.163zM282.617 101.793s1.004 1.073 1.194 4.365c0 0-1.374.6-2.463.6 0 0-1.403-1.992-1.346-5.072-.001 0 .978-.373 2.615.107z" style="fill:#914343"/><path d="M301.366 103.393s.634-4.249-1.798-5.873l-1.991.253s-.661 3.364 1.202 5.985c0 0 1.978-.225 2.587-.365zM281.738 101.605s.9 1.886 1.321 4.83c0 0-.693.283-1.711.323 0 0-1.364-1.667-1.346-5.072-.001 0 1.036-.276 1.736-.081z" style="fill:#451414"/><path d="M308.253 100.095s-4.642-2.7-12.553-1.161l1.468-1.113s5.637-1.753 11.085 2.274zM286.274 103.221s-3.722-1.976-8.063-.931l1.789-1.324c-.001 0 2.91-.445 6.274 2.255z" style="fill:#571d0f"/><path d="M303.232 100.095s-1.263-.278-2.4.872c0-.001 1.556.457 2.4-.872zM284.568 103.758s-1.979-.385-2.663.518c0 0 1.059.728 2.663-.518z" style="fill:#fff"/><path d="M307.786 100.554s-3.607 3.567-9.386 4.42l-.149-2.104.528.889c0-.001 5.556-.33 9.007-3.205zM286.274 104.137s-.642 2.305-5.342 3.347l.151-1.129.264.402c0 .001 3.34-.425 4.927-2.62z" style="fill:#c6659c"/><path d="M295.7 113.358s-1.753-.379-4.974 0-6.843 1.263-8.821 0c0 0 2.629 2.632 4.905 3.032 2.277.4 5.747-1.6 5.747-1.6l1.516.026c.001 0 1.169-.574 1.627-1.458z" style="fill:#cb5f7d"/><path d="M293.852 114.812s-.789-.507-1.452-.38c-.663.126-1.338 1.092-1.338 1.092s1.4-.742 2.79-.712z" style="fill:#9f4a8b"/><path d="M281.905 113.358c-.842-.821 3.516-8.583 5.6-8.871 2.084-.287 4.042 8.702 4.042 8.702s-2.899.406-5.71.783-3.932-.614-3.932-.614z" style="fill:#ffbcaf"/><linearGradient id="ah" x1="317.748" x2="317.748" y1="108.21" y2="88.917" gradientTransform="matrix(-1 0 0 1 600 0)" gradientUnits="userSpaceOnUse"><stop offset="0" style="stop-color:#ffeadb"/><stop offset=".994" style="stop-color:#c27cb6"/></linearGradient><path d="M278.79 88.92c1.18-.15 5.35 4.92 5.35 4.92s2.65 8.21 2.13 10.64c-.52 2.44-6.96 3.73-6.96 3.73l-.27-.43v-.01c.33-.77.61-1.58.79-2.46.51-2.52-.58-8.27-1.37-12.98 0 0-.26-.97-.29-1.87-.03-.76.08-1.48.62-1.54z" style="opacity:.6;fill:url(#ah)"/><linearGradient id="ai" x1="298.634" x2="298.634" y1="147.783" y2="54.15" gradientTransform="matrix(-1 0 0 1 600 0)" gradientUnits="userSpaceOnUse"><stop offset=".006" style="stop-color:#651d4f"/><stop offset="1" style="stop-color:#93364f"/></linearGradient><path d="M276.73 120.05c.14.94 3.35 21.16 12.72 27.27l.01.01s8.47 2.09 21.35-2.71c0 0 14.48-8.29 17.98-22.21 0 0 .81-3.28-.9-6.79 0 0-2.43-1.04-3.54-7.41-1.25-7.11 2.52-11.97 2.52-11.97s-.52-3.85.61-8.21c1.14-4.36 3.29-8.59 2.34-11.68-.95-3.1-8.87-5.06-12.47-7.99a15.68 15.68 0 0 1-1.59-1.49l-.03-.03c-.01-.01-.04-.03-.06-.06-.47-.5-.86-.99-1.24-1.47l-.39-.47-.37-.44c-1.07-1.24-2.37-2.43-5.13-3.72-5.48-2.54-9.35-2.93-13.31-6.48l-.05-.05s-.19 3.6 1.14 6.72c0 0-12.13-2.74-14.97-2.74s-3.79 9.09-3.79 9.09l-.01.01c-.21.29-3.6 4.84-4.82 7.96-.67 1.69 5.2 13.63 5.2 13.63s-.66-5.68 2.94-10.89l1.33 1.23s.05-.12.16-.32c.55-1.02 2.5-4.21 5.9-5.08 0 0 0 .66 10.71-.48 10.7-1.13 15.06-1.7 17.62.76 2.56 2.47 1.61 8.24-.76 10.23 0 0 6.54 6.92 6.35 16.68-.18 9.39-7.27 16.36-10.28 17.53-.11.05-.23.09-.33.12-2.78.76-4.18-4.23-20.53-2.08-11.55 1.51-10.73 2.96-12.06 5.74-.35.74-2.09-1.96-2.25-2.21zm3.26 6.13c-.08-4.3 2.97-5.69 3.54-5.43.56.25 2.27 1.12 7.01.81 4.73-.31 7.89-2.96 7.89-2.96s6.11.63 7.85 5.56c1.75 4.92-6.33 8.21-7.85 8.08-1.51-.12-5.3-4.42-5.3-4.42s-4.11-.31-4.87.44c-.75.76-1.23 6.51-3.5 6.89-2.28.38-4.72-5.98-4.77-8.97z" style="fill:url(#ai)"/><path d="M285.349 106.214s-4.083 5.07-3.693 6.976c.426 2.087 5.155 3.2 5.155 3.2s-3.792-1.308-4.568-3.2c-.001-.001.973-3.842 3.106-6.976z" style="fill:#d2726c"/><linearGradient id="aj" x1="323.227" x2="323.227" y1="88.82" y2="67.22" gradientTransform="matrix(-1 0 0 1 600 0)" gradientUnits="userSpaceOnUse"><stop offset="0" style="stop-color:#ffeadb"/><stop offset=".994" style="stop-color:#8860c7"/></linearGradient><path d="M277.93 88.82s-.66-5.68 2.94-10.89c-2.89-5.16-3.31-10.71-3.31-10.71l-.01.01c-.98 2.41-1.54 7.1-1.54 7.1l-3.28.86c-.67 1.69 5.2 13.63 5.2 13.63z" style="opacity:.6;fill:url(#aj)"/><linearGradient id="ak" x1="293.792" x2="293.792" y1="147.783" y2="54.15" gradientTransform="matrix(-1 0 0 1 600 0)" gradientUnits="userSpaceOnUse"><stop offset="0" style="stop-color:#ccc2db"/><stop offset=".994" style="stop-color:#8860c7"/></linearGradient><path d="M282.36 78.84c.55-1.02 2.5-4.21 5.9-5.08 0 0 0 .66 10.71-.48 10.7-1.13 15.06-1.7 17.62.76 2.56 2.47 1.61 8.24-.76 10.23 0 0 6.54 6.92 6.35 16.68-.18 9.39-7.27 16.36-10.28 17.53l.14 1.04s-.53 21.5-5.76 23.21c-5.22 1.7-16.06.82-17.07 1.83-.96.96.14 2.61.24 2.76l.01.01s8.47 2.09 21.35-2.71c0 0 14.48-8.29 17.98-22.21 0 0 .81-3.28-.9-6.79 0 0-2.43-1.04-3.54-7.41-1.25-7.11 2.52-11.97 2.52-11.97s-.52-3.85.61-8.21c1.14-4.36 3.29-8.59 2.34-11.68-6.06.95-10.04-2.21-10.04-2.21s-1.06-1.47-5.75-2.23c-4.69-.76-23.54 1.14-23.54 1.14s1.89-1.57 5.87-2.61c3.76-.99 16.6.16 17.98.27-1.47-.26-16.03-2.76-17.69-2.26-1.76.52-8.06 3.41-8.06 3.41.57-2.89 6.21-9.85 6.21-9.85s7.96.14 13.17 1.23c4.65.97 7.2 3.1 7.7 3.54l-1.24-1.47-.39-.47-.37-.44-1.82-.31-9.14-3.69c-3.07-1.64-7-5.7-7.48-6.2l-.05-.05s-.19 3.6 1.14 6.72c-7.72-.95-10.33-.47-10.33-.47-3.51 4.97-3.63 18.44-3.63 18.44z" style="opacity:.6;fill:url(#ak)"/><linearGradient id="al" x1="300.07" x2="300.07" y1="147.761" y2="143.738" gradientTransform="matrix(-1 0 0 1 600 0)" gradientUnits="userSpaceOnUse"><stop offset="0" style="stop-color:#776d7e"/><stop offset="1" style="stop-color:#9d68c2"/></linearGradient><path d="M310.81 144.62s-4.733-1.123-11.875-.835c-7.142.288-11.247.317-9.475 3.545 0 0 8.97 2.026 21.35-2.71z" style="opacity:.5;fill:url(#al)"/><path d="M285.99 60.4s-4.342-1.694-6.056-1.415c0 0 .679-.906 1.389-1.095.71-.189 14.996 2.98 14.996 2.98s-8.907-1.038-10.329-.47zM294.8 62.01s.341 4.728 1.85 6.44l17.69 2.26 5.193-.915s-2.009-.858-4.217-3.435c-2.209-2.577-13.742-5.108-20.516-4.35zM277.56 67.22s-1.44 4.65-1.55 7.11l-3.28.86s.995-3.518 4.83-7.97z" style="fill:#b55b6d"/><linearGradient id="am" x1="272.13" x2="261.935" y1="110.262" y2="97.771" gradientTransform="matrix(-1 0 0 1 600 0)" gradientUnits="userSpaceOnUse"><stop offset="0" style="stop-color:#ffeadb"/><stop offset=".994" style="stop-color:#b060f4"/></linearGradient><path d="M325.763 107.484s1.243-5.968 4.293-8.921c3.049-2.953 6.523-2.005 6.523-2.005s-.947 11.068-1.942 13.768c-.995 2.7-2.51 3.41-2.51 3.41s2.132-1.867 2.416-5.528c.284-3.661.379-8.825-.426-9.44-.805-.615-4.06 1.786-4.06 1.786s1.028 1.259 1.644 4.521c.616 3.262-1.658 5.63-2.511 5.583-.853-.047.047-3.774-.095-4.847s-2.037-.837-3.332 1.673z" style="opacity:.8;fill:url(#am)"/><linearGradient id="an" x1="273.198" x2="268.181" y1="108.653" y2="102.507" gradientTransform="matrix(-1 0 0 1 600 0)" gradientUnits="userSpaceOnUse"><stop offset="0" style="stop-color:#ffeadb"/><stop offset=".994" style="stop-color:#b060f4"/></linearGradient><path d="M328.805 100.065s3.329 2.188 2.97 6.674c-.359 4.487-2.923 4.29-2.932 3.349-.009-.942.488-3.366.228-4.738-.261-1.372-2.474-.751-2.474-.751s1.458-3.561 2.208-4.534z" style="opacity:.8;fill:url(#an)"/><path d="M307.757 70.24s-5.049 1.722-10.588 2.211-6.678.599-6.678.599 2.226-2.16 6.968-2.81c4.741-.65 10.298 0 10.298 0z" style="fill:#b55b6d"/><linearGradient id="ao" x1="316.597" x2="321.834" y1="123.139" y2="123.139" gradientTransform="matrix(-1 0 0 1 600 0)" gradientUnits="userSpaceOnUse"><stop offset=".006" style="stop-color:#651d4f"/><stop offset="1" style="stop-color:#c46376"/></linearGradient><path d="M283.355 120.463s-2.416 0-3.367 3.032a25.218 25.218 0 0 0-.967 4.5l-.856-3.323s1.116-4.208 2.277-5.156c.836-.682 2.275-1.375 2.96-1.208l-.047 2.155z" style="fill:url(#ao)"/><linearGradient id="ap" x1="310.132" x2="315.78" y1="119.245" y2="119.245" gradientTransform="matrix(-1 0 0 1 600 0)" gradientUnits="userSpaceOnUse"><stop offset=".006" style="stop-color:#651d4f"/><stop offset="1" style="stop-color:#c46376"/></linearGradient><path d="m289.868 117.432-.408 3.6s-2.944.237-4.892-.569l-.349-2.179c.001 0 3.755-.947 5.649-.852z" style="fill:url(#ap)"/></g><g style="clip-path:url(#b)"><path d="m248.342 134.615-3.22 91.796a6.765 6.765 0 0 1-6.76 6.527H80.23a6.764 6.764 0 0 1-6.762-6.603l-2.213-92.869a6.764 6.764 0 0 1 6.807-6.925l163.565 1.074a6.762 6.762 0 0 1 6.715 7z" style="opacity:.6;fill:#d26df7"/><path d="m73.218 226.34-2.213-92.869a6.957 6.957 0 0 1 2.01-5.084c1.342-1.365 3.148-2.09 5.049-2.098l163.565 1.074a6.96 6.96 0 0 1 5.016 2.159 6.957 6.957 0 0 1 1.947 5.101l-3.22 91.795a6.99 6.99 0 0 1-7.01 6.769H80.23a6.972 6.972 0 0 1-7.012-6.847zm.153-97.602a6.462 6.462 0 0 0-1.866 4.721l2.213 92.869c.084 3.507 3.006 6.359 6.513 6.359h158.132a6.49 6.49 0 0 0 6.51-6.286l3.22-91.795a6.457 6.457 0 0 0-1.809-4.737 6.464 6.464 0 0 0-4.658-2.005L78.06 126.79h-.044a6.464 6.464 0 0 0-4.645 1.948z" style="fill:#9b4ca2"/><linearGradient id="aq" x1="351.796" x2="528.854" y1="132.946" y2="132.946" gradientTransform="matrix(-1 0 0 1 600 0)" gradientUnits="userSpaceOnUse"><stop offset="0" style="stop-color:#9d68c2"/><stop offset="1" style="stop-color:#aec2ff"/></linearGradient><path d="M248.106 139.29H71.442l-.284-4.841a7.413 7.413 0 0 1 7.459-7.847l163.502 1.292a6.134 6.134 0 0 1 6.084 6.249l-.097 5.147z" style="opacity:.6;fill:url(#aq)"/><linearGradient id="ar" x1="387.814" x2="387.814" y1="199.82" y2="146.417" gradientTransform="matrix(-1 0 0 1 600 0)" gradientUnits="userSpaceOnUse"><stop offset="0" style="stop-color:#ccedff"/><stop offset="1" style="stop-color:#9d68c2"/></linearGradient><path d="M239.224 146.696v53.124h-54.076v-53.403z" style="opacity:.3;fill:url(#ar)"/><linearGradient id="as" x1="478.873" x2="478.873" y1="173.784" y2="150.261" gradientTransform="matrix(-1 0 0 1 600 0)" gradientUnits="userSpaceOnUse"><stop offset="0" style="stop-color:#ccedff"/><stop offset="1" style="stop-color:#9d68c2"/></linearGradient><path d="M109.366 173.783h23.523v-23.522h-23.523z" style="opacity:.3;fill:url(#as)"/><linearGradient id="at" x1="506.626" x2="506.626" y1="173.784" y2="150.261" gradientTransform="matrix(-1 0 0 1 600 0)" gradientUnits="userSpaceOnUse"><stop offset="0" style="stop-color:#ccedff"/><stop offset="1" style="stop-color:#9d68c2"/></linearGradient><path d="M81.612 173.783h23.523v-23.522H81.612z" style="opacity:.3;fill:url(#at)"/><linearGradient id="au" x1="450.656" x2="450.656" y1="173.784" y2="150.261" gradientTransform="matrix(-1 0 0 1 600 0)" gradientUnits="userSpaceOnUse"><stop offset="0" style="stop-color:#ccedff"/><stop offset="1" style="stop-color:#9d68c2"/></linearGradient><path d="M137.583 173.783h23.523v-23.522h-23.523z" style="opacity:.3;fill:url(#au)"/><path d="M81.612 187.498h60.153v5.635H81.612z" style="fill:#d1d4fb" transform="rotate(-180 111.69 190.316)"/><path d="M81.612 196.073h75.198v1.744H81.612z" style="fill:#d1d4fb" transform="rotate(-180 119.211 196.945)"/><path d="M141.716 176.783h14.386v1.744h-14.386z" style="fill:#d1d4fb" transform="rotate(-180 148.909 177.655)"/><path d="M113.934 176.783h14.386v1.744h-14.386z" style="fill:#d1d4fb" transform="rotate(-180 121.127 177.655)"/><path d="M86.181 176.783h14.386v1.744H86.181z" style="fill:#d1d4fb" transform="rotate(-180 93.374 177.655)"/><path d="M136.916 198.907h24.19v1.744h-24.19z" style="fill:#d1d4fb" transform="rotate(-180 149.01 199.78)"/><path d="M81.612 201.708h75.198v1.744H81.612z" style="fill:#d1d4fb" transform="rotate(-180 119.211 202.58)"/><path d="M81.612 204.509h79.493v1.744H81.612z" style="fill:#d1d4fb" transform="rotate(-180 121.36 205.38)"/><path d="M81.612 207.31h79.493v1.744H81.612z" style="fill:#d1d4fb" transform="rotate(-180 121.36 208.182)"/><path d="M81.612 218.633h75.198v1.744H81.612z" style="fill:#d1d4fb" transform="rotate(-180 119.211 219.505)"/><path d="M81.612 221.434h79.493v1.744H81.612z" style="fill:#d1d4fb" transform="rotate(-180 121.36 222.306)"/><path d="M81.612 224.235h79.493v1.744H81.612z" style="fill:#d1d4fb" transform="rotate(-180 121.36 225.107)"/><path d="M84.811 210.111h76.295v1.744H84.811z" style="fill:#d1d4fb" transform="rotate(-180 122.958 210.983)"/><path d="M81.612 212.911h75.198v1.744H81.612z" style="fill:#d1d4fb" transform="rotate(-180 119.211 213.784)"/><path d="M96.7 215.712h64.406v1.744H96.7z" style="fill:#d1d4fb" transform="rotate(-180 128.903 216.584)"/><path d="M208.69 173.784c0-8.482 6.9-15.384 15.383-15.384 8.482 0 15.384 6.901 15.384 15.384 0 8.482-6.901 15.383-15.384 15.383-8.482 0-15.383-6.901-15.383-15.383zm1 0c0 7.931 6.452 14.383 14.383 14.383 7.932 0 14.384-6.452 14.384-14.383 0-7.931-6.452-14.384-14.384-14.384-7.93 0-14.383 6.452-14.383 14.384z" style="fill:#e0ffff"/><circle cx="224.074" cy="173.783" r="8.36" style="fill:#fff"/><path d="M169.765 146.417c0-8.482 6.9-15.384 15.383-15.384 8.482 0 15.384 6.901 15.384 15.384 0 8.482-6.901 15.383-15.384 15.383-8.483.001-15.383-6.9-15.383-15.383zm1 0c0 7.931 6.452 14.383 14.383 14.383 7.932 0 14.384-6.452 14.384-14.383 0-7.931-6.452-14.384-14.384-14.384-7.931.001-14.383 6.453-14.383 14.384z" style="fill:#e0ffff"/><circle cx="185.148" cy="146.417" r="7.867" style="fill:#fff" transform="rotate(-9.369 185.18 146.438)"/><path d="m241.916 132.081-1.124-1.704-6.078 5.327.932 1.299z" style="fill:#fff"/><path d="m234.558 132.081 1.124-1.704 6.078 5.327-.932 1.299z" style="fill:#fff"/><path d="M75.716 131.534h54.442v2.729H75.716z" style="fill:#fff" transform="rotate(-180 102.937 132.899)"/></g><g style="clip-path:url(#b)"><linearGradient id="av" x1="197.668" x2="197.668" y1="115.987" y2="91.365" gradientTransform="matrix(-1 0 0 1 600 0)" gradientUnits="userSpaceOnUse"><stop offset="0" style="stop-color:#d93de3"/><stop offset="1" style="stop-color:#ff6dba"/></linearGradient><path d="M416.65 92.123v23.623l-28.255.241-.382-24.622z" style="fill:url(#av)"/><linearGradient id="aw" x1="212.718" x2="212.718" y1="115.987" y2="91.365" gradientTransform="matrix(-1 0 0 1 600 0)" gradientUnits="userSpaceOnUse"><stop offset="0" style="stop-color:#a242ea"/><stop offset="1" style="stop-color:#fe117e"/></linearGradient><path d="m388.013 91.365-1.844 3.104.922 21.496 1.304.022z" style="fill:url(#aw)"/><path d="m411.605 100.096-2.61-3.788-14.11 11.843 2.165 2.887z" style="fill:#fff"/><path d="m394.523 100.096 2.61-3.788 14.109 11.843-2.164 2.887z" style="fill:#fff"/></g><g style="clip-path:url(#b)"><linearGradient id="ax" x1="193.396" x2="206.71" y1="375.37" y2="269.356" gradientTransform="matrix(-1 0 0 1 600 0)" gradientUnits="userSpaceOnUse"><stop offset="0" style="stop-color:#ff06da"/><stop offset="1" style="stop-color:#7837a0"/></linearGradient><path d="M350.731 370.181h96.689a7.919 7.919 0 0 0 7.917-7.738l1.805-79.306a7.919 7.919 0 0 0-7.917-8.099H348.556a7.92 7.92 0 0 0-7.916 8.136l2.175 79.306a7.919 7.919 0 0 0 7.916 7.701z" style="opacity:.81;fill:url(#ax)"/><path d="m342.565 362.486-2.175-79.307a8.103 8.103 0 0 1 2.311-5.92 8.103 8.103 0 0 1 5.855-2.473h100.669c2.217 0 4.292.873 5.841 2.458a8.112 8.112 0 0 1 2.325 5.898l-1.805 79.306c-.1 4.401-3.764 7.982-8.166 7.982h-96.69a8.125 8.125 0 0 1-8.165-7.944zm5.991-87.199a7.61 7.61 0 0 0-5.497 2.321 7.605 7.605 0 0 0-2.169 5.558l2.175 79.307a7.629 7.629 0 0 0 7.666 7.458h96.689c4.134 0 7.573-3.361 7.666-7.494l1.805-79.306a7.614 7.614 0 0 0-2.183-5.536 7.61 7.61 0 0 0-5.483-2.308H348.556z" style="fill:#713da2"/><path d="M380.228 291.258h50.85v2.177h-50.85z" style="fill:#fff" transform="rotate(-180 405.653 292.347)"/><path d="M405.653 296.554h25.425v2.177h-25.425z" style="fill:#fff" transform="rotate(-180 418.365 297.642)"/><path d="M405.653 300.975h25.425v2.177h-25.425z" style="fill:#fff" transform="rotate(-180 418.365 302.063)"/><path d="M382.572 300.975H402.8v2.177h-20.228z" style="fill:#fff" transform="rotate(-180 392.686 302.063)"/><path d="M390.088 305.396h40.989v2.177h-40.989z" style="fill:#fff" transform="rotate(-180 410.583 306.484)"/><path d="M416.488 309.817h14.589v2.177h-14.589z" style="fill:#fff" transform="rotate(-180 423.783 310.906)"/><path d="M388.257 323.08h25.232v2.177h-25.232z" style="fill:#fff" transform="rotate(-180 400.872 324.169)"/><path d="M385.351 314.238h45.726v2.177h-45.726z" style="fill:#fff" transform="rotate(-180 408.214 315.327)"/><path d="M395.899 318.659h35.179v2.177h-35.179z" style="fill:#fff" transform="rotate(-180 413.488 319.748)"/><path d="M414.53 323.08h16.547v2.177H414.53z" style="fill:#fff" transform="rotate(-180 422.804 324.169)"/><path d="M405.653 327.501h25.425v2.177h-25.425z" style="fill:#fff" transform="rotate(-180 418.365 328.59)"/><path d="M423.783 331.922h7.295v2.177h-7.295z" style="fill:#fff" transform="rotate(-180 427.43 333.01)"/><path d="M394.32 331.922h26.463v2.177H394.32z" style="fill:#fff" transform="rotate(-180 407.551 333.01)"/><path d="M388.257 336.213h25.232v2.177h-25.232z" style="fill:#fff" transform="rotate(-180 400.872 337.301)"/><path d="M414.53 336.213h16.547v2.177H414.53z" style="fill:#fff" transform="rotate(-180 422.804 337.301)"/><path d="M405.653 340.634h25.425v2.177h-25.425z" style="fill:#fff" transform="rotate(-180 418.365 341.722)"/><path d="M423.783 345.055h7.295v2.177h-7.295z" style="fill:#fff" transform="rotate(-180 427.43 346.143)"/><path d="M394.32 345.055h26.463v2.177H394.32z" style="fill:#fff" transform="rotate(-180 407.551 346.143)"/></g><path d="M91.282 108.84a4.47 4.47 0 1 0 8.938 0 4.47 4.47 0 0 0-8.938 0z" style="clip-path:url(#b);fill:url(#SVGID_00000088835949762734208980000016552038863483669692_)"/><path d="M510.183 212.477a5.562 5.562 0 1 0 11.124 0 5.562 5.562 0 0 0-11.124 0z" style="clip-path:url(#b);fill:url(#SVGID_00000145774853602501475370000005757673346883884187_)"/><circle cx="82.626" cy="108.84" r="4.469" style="clip-path:url(#b);fill:url(#SVGID_00000063610542601664243790000011284146106806964155_)"/><circle cx="370.797" cy="139.566" r="3.16" style="clip-path:url(#b);fill:url(#SVGID_00000088833681133303291070000005207722677953704841_)"/><circle cx="159.14" cy="279.003" r="3.16" style="clip-path:url(#b);fill:url(#SVGID_00000095299039763396729000000002026527484070759591_)"/><circle cx="487.662" cy="310.508" r="2.825" style="clip-path:url(#b);fill:url(#SVGID_00000065060763122916229970000014116880711099733927_)"/><g style="clip-path:url(#b)"><linearGradient id="ay" x1="136.043" x2="136.043" y1="282.771" y2="236.109" gradientTransform="matrix(-1 0 0 1 600 0)" gradientUnits="userSpaceOnUse"><stop offset="0" style="stop-color:#0683e3"/><stop offset="1" style="stop-color:#6de2ff"/></linearGradient><path d="M439.506 282.771h48.799a7.283 7.283 0 0 0 7.279-7.038l1.083-32.096a7.283 7.283 0 0 0-7.279-7.529h-50.864a7.283 7.283 0 0 0-7.28 7.506l.981 32.096a7.284 7.284 0 0 0 7.281 7.061z" style="opacity:.73;fill:url(#ay)"/><path d="m431.976 275.719-.981-32.097a7.474 7.474 0 0 1 2.123-5.476 7.47 7.47 0 0 1 5.407-2.288h50.864c2.06 0 3.983.815 5.415 2.297a7.472 7.472 0 0 1 2.114 5.491l-1.084 32.096a7.503 7.503 0 0 1-7.529 7.279h-48.799a7.498 7.498 0 0 1-7.53-7.302zm6.549-39.361a6.975 6.975 0 0 0-5.048 2.137 6.977 6.977 0 0 0-1.982 5.111l.981 32.097a7.001 7.001 0 0 0 7.03 6.818h48.799c3.813 0 6.9-2.985 7.029-6.797l1.084-32.096c.065-1.922-.636-3.743-1.973-5.126s-3.133-2.145-5.056-2.145h-50.864z" style="fill:#403da2"/><path d="m475.295 247.64 12.032 13.946-12.253 10.401v-5.368l7.088-6.136-6.583-7.443zM454.146 248.266l-12.032 13.947 12.253 10.401v-5.369l-7.088-6.136 7.887-8.347zM472.674 271.987l-10.484-23.094h-4.926l11.873 23.094z" style="fill:#fff"/></g><g style="clip-path:url(#b)"><linearGradient id="az" x1="458.234" x2="458.234" y1="348.822" y2="290.447" gradientTransform="matrix(-1 0 0 1 600 0)" gradientUnits="userSpaceOnUse"><stop offset="0" style="stop-color:#0683e3"/><stop offset="1" style="stop-color:#6de2ff"/></linearGradient><path d="M111.178 348.822h61.047a9.111 9.111 0 0 0 9.106-8.804l1.355-40.152c.174-5.15-3.954-9.419-9.106-9.419h-63.63c-5.141 0-9.264 4.251-9.107 9.39l1.227 40.152a9.114 9.114 0 0 0 9.108 8.833z" style="opacity:.73;fill:url(#az)"/><path d="m101.821 339.996-1.228-40.151a9.29 9.29 0 0 1 2.639-6.805 9.285 9.285 0 0 1 6.719-2.843h63.63a9.286 9.286 0 0 1 6.729 2.854 9.29 9.29 0 0 1 2.626 6.823l-1.355 40.151a9.324 9.324 0 0 1-9.355 9.045h-61.047a9.317 9.317 0 0 1-9.358-9.074zm8.13-49.299a8.79 8.79 0 0 0-6.36 2.691 8.791 8.791 0 0 0-2.497 6.44l1.228 40.151a8.821 8.821 0 0 0 8.857 8.591h61.047a8.824 8.824 0 0 0 8.855-8.563l1.355-40.151a8.789 8.789 0 0 0-2.485-6.458 8.79 8.79 0 0 0-6.37-2.702h-63.63z" style="fill:#403da2"/><path d="M114.543 296.911h55.911v33.206h-55.911z" style="fill:#d1d4fb" transform="rotate(-180 142.499 313.514)"/><path d="M147.449 305.151v16.727l-14.287-9.129z" style="fill:#fff"/><path d="M114.543 336.237h55.911v3.036h-55.911z" style="fill:#d1d4fb" transform="rotate(-180 142.499 337.756)"/><path d="M155.98 336.237h14.474v3.036H155.98z" style="fill:#fff"/></g><g style="clip-path:url(#b)"><linearGradient id="aA" x1="404.32" x2="399.347" y1="275.204" y2="232.513" gradientTransform="scale(-1 1) rotate(15.07 -61.49 -2054.815)" gradientUnits="userSpaceOnUse"><stop offset="0" style="stop-color:#1852a0"/><stop offset="1" style="stop-color:#067ed3"/></linearGradient><path d="m214.332 294.764-2.917-8.349c-1.012.741 1.307 3.735 2.917 8.349zm2.924 8.346-2.924-8.347c1.618 4.613 2.188 8.128 2.924 8.347zm-2.924-8.346-2.917-8.349c-1.012.741 1.307 3.735 2.917 8.349zm2.924 8.346-2.924-8.347c1.618 4.613 2.188 8.128 2.924 8.347zm-10.789-.128a21.752 21.752 0 0 0 2.317 3.204l-1.36 3.918 5.888 4.456.582-4.419c1.208.544 2.433.841 3.629.845l.553 2.024.815 2.964 5.264-2.052-2.012-4.648c.91-.78 1.665-1.794 2.252-2.996l3.286 3.143 1.562-7.357-3.429-2.152a22.736 22.736 0 0 0-.434-5.089l3.279-.549-3.059-8.352-2.837 1.6a22.289 22.289 0 0 0-2.873-4.182l1.36-3.918-5.888-4.457-.59 4.421c-1.208-.544-2.425-.843-3.621-.847l-1.284-4.677-5.348 1.741 2.01 4.64c-.197.17-.389.355-.569.555a9.493 9.493 0 0 0-1.68 2.45l-3.286-3.143-1.562 7.357 3.429 2.152c-.042 1.332.042 2.73.277 4.162.041.307.099.617.158.927l-3.279.549 3.059 8.352 2.835-1.607c.18.334.36.662.556.985zm4.948-16.567c2.926-1.022 6.607 1.881 8.225 6.493 1.616 4.604.547 9.17-2.384 10.202-2.926 1.022-1.307-3.735-2.924-8.347-1.61-4.613-5.85-7.324-2.917-8.348zm2.917 8.349-2.917-8.349c-1.012.741 1.307 3.735 2.917 8.349zm2.924 8.346-2.924-8.347c1.618 4.613 2.188 8.128 2.924 8.347z" style="fill-rule:evenodd;clip-rule:evenodd;fill:url(#aA)"/><linearGradient id="aB" x1="399.499" x2="399.499" y1="275.366" y2="231.621" gradientTransform="scale(-1 1) rotate(15.07 -61.49 -2054.815)" gradientUnits="userSpaceOnUse"><stop offset="0" style="stop-color:#1852a0"/><stop offset="1" style="stop-color:#067ed3"/></linearGradient><path d="m206.467 302.982 4.598 2.832-3.642 4.29 5.888 4.456 4.764-1.55 2.789-.91-.763 1.451-1.211 2.424 7.545-2.458 5.271-2.055-1.702-3.929 5.228-.572-2.72-9.914-5.506-15.264 1.786-4.818-5.888-4.457-4.586 2.179-.985-3.596-5.271 2.055-2.197.717-5.348 1.741 2.63 5.359 1.39-3.315-7.546 2.457-1.143 7.144 3.464 1.691.328 4.6-.505.236-3.121 1.476 3.059 8.352 3.394-.622zm10.789.128-2.924-8.347-2.917-8.349c2.926-1.022 6.607 1.881 8.225 6.493 1.616 4.605.548 9.172-2.384 10.203z" style="fill-rule:evenodd;clip-rule:evenodd;fill:url(#aB)"/><linearGradient id="aC" x1="361.937" x2="358.72" y1="289.272" y2="261.658" gradientTransform="matrix(-.9438 .3306 .5202 1.4851 418.664 -235.914)" gradientUnits="userSpaceOnUse"><stop offset="0" style="stop-color:#188dc1"/><stop offset="1" style="stop-color:#06bfe7"/></linearGradient><path d="M213.456 299.54a22.66 22.66 0 0 0 2.873 4.188l-1.356 3.918 5.888 4.454.584-4.416c1.207.543 2.428.84 3.623.845l1.365 4.986 5.269-2.053-2.012-4.643c.912-.782 1.666-1.798 2.25-3.001l3.288 3.141 1.564-7.358-3.43-2.151a22.91 22.91 0 0 0-.437-5.083l3.28-.548-3.058-8.352-2.837 1.601a22.66 22.66 0 0 0-2.873-4.188l1.356-3.917-5.888-4.454-.584 4.416c-1.207-.543-2.428-.84-3.623-.845l-1.365-4.986-5.269 2.054 2.012 4.643c-.912.782-1.666 1.798-2.249 3.001l-3.288-3.141-1.564 7.358 3.43 2.151a22.91 22.91 0 0 0 .437 5.083l-3.28.548 3.058 8.352 2.836-1.603zm3.123-5.379c-1.615-4.609-.549-9.178 2.38-10.204 2.929-1.026 6.613 1.879 8.227 6.488 1.615 4.609.549 9.178-2.38 10.204-2.929 1.026-6.612-1.879-8.227-6.488z" style="fill-rule:evenodd;clip-rule:evenodd;fill:url(#aC)"/><path d="m199.429 287.461 7.545-2.455 3.43 2.151-7.546 2.456z" style="opacity:.5;fill-rule:evenodd;clip-rule:evenodd;fill:#601734"/><path d="m207.423 310.104 7.55-2.459 1.356-3.918-7.546 2.459z" style="fill-rule:evenodd;clip-rule:evenodd;fill:#b3d9ff"/><path d="m214.075 277.788-4.137 1.197-1.4-1.337-2.747.894-1.273-2.939 7.545-2.458zM225.068 308.528l-3.953 1.645.329-2.49c.001 0 2.127 1.123 3.624.845zM224.458 285.904l-6.654 3.519s-.965-1.293-1.711-1.812c-.001-.001 1.735-7.338 8.365-1.707z" style="opacity:.5;fill-rule:evenodd;clip-rule:evenodd;fill:#601734"/></g><path d="m377.212 36.963-6.415 12.85 4.285 1.949 5.999-11.804z" style="clip-path:url(#b);fill:#ff1d9c"/><path d="m521.661 336.304-5.937 6.515-2.33-2.689 5.605-6.17z" style="clip-path:url(#b);fill:#6877ff"/><path d="m219.885 115.368 5.981 3.629 2.396-4.544-6.538-3.818zM190.442 345.084l8.57 6.085 2.396-4.544-8.32-4.858z" style="clip-path:url(#b);fill:#4f31e0"/><g style="clip-path:url(#b)"><linearGradient id="aD" x1="412.351" x2="423.683" y1="88.097" y2="46.014" gradientTransform="matrix(-1 0 0 1 600 0)" gradientUnits="userSpaceOnUse"><stop offset="0" style="stop-color:#188dc1"/><stop offset="1" style="stop-color:#06bfe7"/></linearGradient><path d="m201.763 84.297 1.447-33.658h-44.07l1.812 33.562z" style="fill-rule:evenodd;clip-rule:evenodd;fill:url(#aD)"/><linearGradient id="aE" x1="392.874" x2="401.324" y1="83.243" y2="51.86" gradientTransform="matrix(-1 0 0 1 600 0)" gradientUnits="userSpaceOnUse"><stop offset="0" style="stop-color:#1852a0"/><stop offset="1" style="stop-color:#067ed3"/></linearGradient><path d="m203.21 50.639 1.32 1.985-1.32 31.673h-1.447z" style="fill-rule:evenodd;clip-rule:evenodd;fill:url(#aE)"/><path d="m188.577 57.36 6.916-.741-.947 23.063-5.969-.586v-2.387l3.458.082.395-17.785-3.853.11zM174.414 57.36l-6.915-.741.947 23.063 5.968-.586v-2.387l-3.457.082-.395-17.785 3.852.11z" style="fill:#fff"/></g><g style="clip-path:url(#b)"><linearGradient id="aF" x1="121.924" x2="129.649" y1="160.571" y2="131.882" gradientTransform="translate(393.344)" gradientUnits="userSpaceOnUse"><stop offset="0" style="stop-color:#188dc1"/><stop offset="1" style="stop-color:#06bfe7"/></linearGradient><path d="m505.647 157.98-.987-22.945h30.043l-1.235 22.88z" style="fill-rule:evenodd;clip-rule:evenodd;fill:url(#aF)"/><linearGradient id="aG" x1="108.646" x2="114.407" y1="157.261" y2="135.867" gradientTransform="translate(393.344)" gradientUnits="userSpaceOnUse"><stop offset="0" style="stop-color:#1852a0"/><stop offset="1" style="stop-color:#067ed3"/></linearGradient><path d="m504.66 135.035-.9 1.353.9 21.592h.987z" style="fill-rule:evenodd;clip-rule:evenodd;fill:url(#aG)"/><path d="M516.233 139.651s-3.294-.126-3.875.141c-.581.268.151 5.635.151 5.635l-1.313 1.206 1.227 1.19s-.065 5.441.71 5.893c.775.452 3.423 0 3.423 0v-1.356s-2.164.136-2.519-.155c-.355-.291-.323-5.044-.323-5.044l-.581-.635.581-.689s-.107-3.388-.043-4.318c.043-.619 2.562-.651 2.562-.651v-1.217zM523.779 139.651s3.294-.126 3.875.141c.581.268-.151 5.635-.151 5.635l1.313 1.206-1.227 1.19s.065 5.441-.71 5.893c-.775.452-3.423 0-3.423 0v-1.356s2.164.136 2.519-.155c.355-.291.323-5.044.323-5.044l.581-.635-.581-.689s.107-3.388.043-4.318c-.043-.619-2.562-.651-2.562-.651v-1.217z" style="fill:#fff"/></g><g style="clip-path:url(#b)"><path d="m240.411 72.05 19.093-3.988-7.362 19.268-11.731-15.28zm.881.327 10.701 13.939 6.718-17.578-17.419 3.639z" style="fill:#744ca2"/><path d="M196.091 350.492h.499v10.938h-.499z" style="fill:#744ca2" transform="rotate(-36.245 196.332 355.971)"/><path d="m260.085 279.159 6.945-8.644-.39-.313-6.946 8.645zM474.415 339.88l13.865-10.059-.294-.404-13.865 10.059z" style="fill:#744ca2"/><path d="M480.951 326.084h.5v17.13h-.5z" style="fill:#744ca2" transform="rotate(-37.3 481.174 334.636)"/><path d="M496.09 189.542h10.139v.5H496.09z" style="fill:#744ca2" transform="rotate(-27.718 501.197 189.803)"/><path d="m151.949 71.37.375-.33-10.371-11.83-.375.331z" style="fill:#744ca2"/><path d="M346.114 104.503h10.406v.5h-10.406z" style="fill:#744ca2" transform="rotate(-63.55 351.333 104.755)"/><path d="M420.852 254.212h.499v15.543h-.499z" style="fill:#744ca2" transform="rotate(-50.087 421.113 261.991)"/></g><path d="M51.981 338.848a6.887 6.887 0 1 1-13.774 0 6.887 6.887 0 0 1 13.774 0z" style="clip-path:url(#b);fill-rule:evenodd;clip-rule:evenodd;fill:#cbd1ff"/></svg>